<svg width="136" height="98" viewBox="0 0 136 98" fill="none" xmlns="http://www.w3.org/2000/svg">
<path fill-rule="evenodd" clip-rule="evenodd" d="M1.27062 63.6721C-0.429463 61.995 -0.42261 59.2886 1.2857 57.6107C2.98601 55.9411 5.7375 55.9531 7.4426 57.6375C9.12694 59.3007 9.12076 62.0175 7.42912 63.6797C5.72538 65.3539 2.97208 65.3503 1.27062 63.6721Z" fill="white"/>
<path d="M7.41192 46.3635C5.70887 44.6986 2.9736 44.7013 1.26918 46.3625C1.22678 46.4123 1.18373 46.4615 1.14069 46.5108C1.04855 46.6161 0.956453 46.7215 0.870824 46.8319C-0.601077 48.7332 -0.157953 51.528 1.82903 52.8924C3.60539 54.1116 5.90461 53.9101 7.4544 52.3988C8.71411 51.1709 10.6712 50.828 12.2876 51.5461C12.8505 51.7963 13.3109 52.1771 13.7606 52.5844C15.5375 54.1936 18.3954 54.0121 19.956 52.2021C21.4498 50.4689 21.3514 47.97 19.7257 46.3635C18.0451 44.7024 18.0404 41.9994 19.7154 40.3287C21.0926 38.9548 21.4066 36.9405 20.5033 35.2727C19.0353 32.5623 15.2269 32.203 13.2733 34.5905C11.871 36.3039 12.0117 38.7578 13.6023 40.3289C15.3936 42.0981 15.2474 45.0579 13.2911 46.6389C11.5373 48.0561 9.02224 47.9384 7.41192 46.3635Z" fill="white"/>
<path d="M1.28449 34.3784C-0.424044 36.0556 -0.428613 38.7613 1.27353 40.4383C2.96973 42.1092 5.71595 42.1176 7.40668 40.457C9.12184 38.7721 9.13715 36.0734 7.44048 34.3986C5.734 32.7142 2.98847 32.7052 1.28449 34.3784Z" fill="white"/>
<path fill-rule="evenodd" clip-rule="evenodd" d="M36.8595 47.4549C36.8595 47.5958 36.9759 47.71 37.1196 47.71H39.609C40.4318 47.71 41.0377 47.5312 41.4263 47.1733C41.8143 46.8154 42.0088 46.3929 42.0088 45.9054C42.0088 45.4183 41.8143 45.0031 41.4263 44.6606C41.0377 44.3178 40.4318 44.1466 39.609 44.1466H37.1196C36.9759 44.1466 36.8595 44.2607 36.8595 44.4016V47.4549ZM36.5994 56.9616H33.8811C33.7376 56.9616 33.6211 56.8475 33.6211 56.7064V41.2268C33.6211 41.0861 33.7376 40.9718 33.8811 40.9718H40.2145C40.8979 40.9718 41.5427 41.1015 42.1487 41.3599C42.7542 41.6193 43.2861 41.9733 43.7447 42.4224C44.2025 42.8717 44.5675 43.3932 44.8396 43.987C45.1111 44.5809 45.2473 45.2207 45.2473 45.9057C45.2473 46.591 45.1152 47.2385 44.8513 47.8473C44.5869 48.4568 44.2261 48.9821 43.7681 49.4234C43.3095 49.8654 42.7736 50.2156 42.1604 50.4742C41.5464 50.7333 40.8979 50.8625 40.2145 50.8625H37.1196C36.9758 50.8625 36.8595 50.9769 36.8595 51.1178V56.7064C36.8595 56.8475 36.7428 56.9616 36.5994 56.9616Z" fill="white"/>
<path fill-rule="evenodd" clip-rule="evenodd" d="M57.1773 50.5035L55.9002 47.6863C55.8086 47.4844 55.5163 47.4844 55.4246 47.6863L54.1474 50.5035C54.071 50.6722 54.197 50.8622 54.3853 50.8622H56.9393C57.1279 50.8622 57.2536 50.6722 57.1773 50.5035ZM56.4068 40.9631L63.5141 56.6026C63.5908 56.7711 63.4648 56.9615 63.2766 56.9615H60.2815C60.1789 56.9615 60.0856 56.9022 60.0437 56.8102L58.8531 54.189C58.8112 54.0969 58.7183 54.0375 58.6153 54.0375H52.7337C52.6302 54.0375 52.5375 54.0962 52.4963 54.1893C52.3125 54.6027 52.1134 55.0431 51.8994 55.511C51.6863 55.9757 51.4949 56.4078 51.3242 56.8069C51.2838 56.9018 51.1904 56.9615 51.0857 56.9615H48.1162C47.928 56.9615 47.8021 56.7721 47.8778 56.6037L54.8948 40.9642C54.9364 40.8714 55.0298 40.8116 55.1329 40.8116H56.1692C56.2718 40.8116 56.3648 40.871 56.4068 40.9631Z" fill="white"/>
<path fill-rule="evenodd" clip-rule="evenodd" d="M88.7601 41.2575L83.7283 56.9427C83.6939 57.0489 83.5936 57.1213 83.4798 57.1213H82.1639C82.0602 57.1213 81.9665 57.061 81.9252 56.9678L77.8744 47.8354C77.7837 47.6312 77.4883 47.6308 77.3972 47.8351L73.3241 56.9682C73.2825 57.0613 73.1891 57.1213 73.0857 57.1213H71.7695C71.6557 57.1213 71.5552 57.0489 71.5212 56.9426L66.5121 41.3031C66.4595 41.1386 66.5846 40.9716 66.7603 40.9716H69.594C69.7076 40.9716 69.8076 41.0435 69.8422 41.1494L72.5795 49.5964C72.6523 49.821 72.9705 49.8368 73.0664 49.6204L76.8926 40.9654C76.9337 40.8719 77.0277 40.8116 77.1312 40.8116H78.1181C78.2216 40.8116 78.3153 40.8717 78.3568 40.9649L82.2062 49.6242C82.3022 49.84 82.6195 49.8255 82.6925 49.6012C83.1206 48.2854 83.5516 46.9468 83.9853 45.5856C84.4704 44.0634 84.9521 42.5688 85.4306 41.1024C85.4649 40.9966 85.565 40.9258 85.6782 40.9258H88.5119C88.6877 40.9258 88.8129 41.093 88.7601 41.2575Z" fill="white"/>
<path fill-rule="evenodd" clip-rule="evenodd" d="M95.182 40.8116H96.2273C96.3011 40.8116 96.3714 40.8424 96.4207 40.8962L104.697 49.9115C104.856 50.0851 105.15 49.9744 105.15 49.7408V41.2268C105.15 41.0859 105.267 40.9716 105.411 40.9716H108.105C108.249 40.9716 108.366 41.0859 108.366 41.2268V56.8663C108.366 57.0071 108.249 57.1213 108.105 57.1213H107.037C106.963 57.1213 106.893 57.0906 106.844 57.0367L98.5909 48.0446C98.4312 47.871 98.1372 47.9814 98.1372 48.2152V56.7063C98.1372 56.8473 98.0206 56.9614 97.8769 56.9614H95.182C95.0383 56.9614 94.9219 56.8473 94.9219 56.7063V41.0669C94.9219 40.926 95.0383 40.8116 95.182 40.8116Z" fill="white"/>
<path fill-rule="evenodd" clip-rule="evenodd" d="M119.364 44.402V47.1125C119.364 47.2534 119.48 47.3676 119.624 47.3676H124.392C124.536 47.3676 124.653 47.4818 124.653 47.6228V50.3106C124.653 50.4513 124.536 50.5656 124.392 50.5656H119.624C119.48 50.5656 119.364 50.6797 119.364 50.8209V56.7064C119.364 56.8472 119.247 56.9616 119.104 56.9616H116.385C116.242 56.9616 116.125 56.8472 116.125 56.7064V41.2268C116.125 41.0859 116.242 40.9718 116.385 40.9718H126.35C126.493 40.9718 126.61 41.0859 126.61 41.2268V43.8917C126.61 44.0326 126.493 44.1467 126.35 44.1467H119.624C119.48 44.1467 119.364 44.2611 119.364 44.402Z" fill="white"/>
<path fill-rule="evenodd" clip-rule="evenodd" d="M132.785 56.7064V41.2268C132.785 41.0859 132.902 40.9718 133.045 40.9718H135.74C135.884 40.9718 136 41.0859 136 41.2268V56.7064C136 56.8472 135.884 56.9616 135.74 56.9616H133.045C132.902 56.9616 132.785 56.8472 132.785 56.7064Z" fill="white"/>
</svg>
