<svg width="136" height="98" viewBox="0 0 136 98" fill="none" xmlns="http://www.w3.org/2000/svg">
<path d="M25.259 56.198C24.3057 56.198 23.4477 56.0293 22.685 55.692C21.937 55.34 21.343 54.8707 20.903 54.284C20.463 53.6827 20.2283 53.0153 20.199 52.282H22.795C22.839 52.7953 23.081 53.228 23.521 53.58C23.9757 53.9173 24.5403 54.086 25.215 54.086C25.919 54.086 26.4617 53.954 26.843 53.69C27.239 53.4113 27.437 53.0593 27.437 52.634C27.437 52.1793 27.217 51.842 26.777 51.622C26.3517 51.402 25.6697 51.16 24.731 50.896C23.8217 50.6467 23.081 50.4047 22.509 50.17C21.937 49.9353 21.4383 49.576 21.013 49.092C20.6023 48.608 20.397 47.97 20.397 47.178C20.397 46.5327 20.5877 45.946 20.969 45.418C21.3503 44.8753 21.893 44.45 22.597 44.142C23.3157 43.834 24.137 43.68 25.061 43.68C26.4397 43.68 27.547 44.032 28.383 44.736C29.2337 45.4253 29.6883 46.3713 29.747 47.574H27.239C27.195 47.0313 26.975 46.5987 26.579 46.276C26.183 45.9533 25.6477 45.792 24.973 45.792C24.313 45.792 23.807 45.9167 23.455 46.166C23.103 46.4153 22.927 46.7453 22.927 47.156C22.927 47.4787 23.0443 47.75 23.279 47.97C23.5137 48.19 23.7997 48.366 24.137 48.498C24.4743 48.6153 24.973 48.7693 25.633 48.96C26.513 49.1947 27.2317 49.4367 27.789 49.686C28.361 49.9207 28.8523 50.2727 29.263 50.742C29.6737 51.2113 29.8863 51.8347 29.901 52.612C29.901 53.3013 29.7103 53.9173 29.329 54.46C28.9477 55.0027 28.405 55.428 27.701 55.736C27.0117 56.044 26.1977 56.198 25.259 56.198ZM35.5369 45.924V52.634C35.5369 53.0887 35.6396 53.4187 35.8449 53.624C36.0649 53.8147 36.4316 53.91 36.9449 53.91H38.4849V56H36.5049C35.3756 56 34.5103 55.736 33.9089 55.208C33.3076 54.68 33.0069 53.822 33.0069 52.634V45.924H31.5769V43.878H33.0069V40.864H35.5369V43.878H38.4849V45.924H35.5369ZM39.9605 49.884C39.9605 48.6667 40.2098 47.5887 40.7085 46.65C41.2218 45.7113 41.9112 44.9853 42.7765 44.472C43.6565 43.944 44.6245 43.68 45.6805 43.68C46.6338 43.68 47.4625 43.8707 48.1665 44.252C48.8852 44.6187 49.4572 45.0807 49.8825 45.638V43.878H52.4125V56H49.8825V54.196C49.4572 54.768 48.8778 55.2447 48.1445 55.626C47.4112 56.0073 46.5752 56.198 45.6365 56.198C44.5952 56.198 43.6418 55.934 42.7765 55.406C41.9112 54.8633 41.2218 54.1153 40.7085 53.162C40.2098 52.194 39.9605 51.1013 39.9605 49.884ZM49.8825 49.928C49.8825 49.092 49.7065 48.366 49.3545 47.75C49.0172 47.134 48.5698 46.6647 48.0125 46.342C47.4552 46.0193 46.8538 45.858 46.2085 45.858C45.5632 45.858 44.9618 46.0193 44.4045 46.342C43.8472 46.65 43.3925 47.112 43.0405 47.728C42.7032 48.3293 42.5345 49.048 42.5345 49.884C42.5345 50.72 42.7032 51.4533 43.0405 52.084C43.3925 52.7147 43.8472 53.1987 44.4045 53.536C44.9765 53.8587 45.5778 54.02 46.2085 54.02C46.8538 54.02 47.4552 53.8587 48.0125 53.536C48.5698 53.2133 49.0172 52.744 49.3545 52.128C49.7065 51.4973 49.8825 50.764 49.8825 49.928ZM58.6326 45.924V52.634C58.6326 53.0887 58.7353 53.4187 58.9406 53.624C59.1606 53.8147 59.5273 53.91 60.0406 53.91H61.5806V56H59.6006C58.4713 56 57.606 55.736 57.0046 55.208C56.4033 54.68 56.1026 53.822 56.1026 52.634V45.924H54.6726V43.878H56.1026V40.864H58.6326V43.878H61.5806V45.924H58.6326ZM75.0022 49.642C75.0022 50.0967 74.9729 50.5073 74.9142 50.874H65.6522C65.7255 51.842 66.0849 52.6193 66.7302 53.206C67.3755 53.7927 68.1675 54.086 69.1062 54.086C70.4555 54.086 71.4089 53.5213 71.9662 52.392H74.6722C74.3055 53.5067 73.6382 54.4233 72.6702 55.142C71.7169 55.846 70.5289 56.198 69.1062 56.198C67.9475 56.198 66.9062 55.9413 65.9822 55.428C65.0729 54.9 64.3542 54.1667 63.8262 53.228C63.3129 52.2747 63.0562 51.1747 63.0562 49.928C63.0562 48.6813 63.3055 47.5887 63.8042 46.65C64.3175 45.6967 65.0289 44.9633 65.9382 44.45C66.8622 43.9367 67.9182 43.68 69.1062 43.68C70.2502 43.68 71.2695 43.9293 72.1642 44.428C73.0589 44.9267 73.7555 45.6307 74.2542 46.54C74.7529 47.4347 75.0022 48.4687 75.0022 49.642ZM72.3842 48.85C72.3695 47.926 72.0395 47.1853 71.3942 46.628C70.7489 46.0707 69.9495 45.792 68.9962 45.792C68.1309 45.792 67.3902 46.0707 66.7742 46.628C66.1582 47.1707 65.7915 47.9113 65.6742 48.85H72.3842ZM79.9783 45.638C80.345 45.022 80.829 44.5453 81.4303 44.208C82.0463 43.856 82.7723 43.68 83.6083 43.68V46.276H82.9703C81.9876 46.276 81.2396 46.5253 80.7263 47.024C80.2276 47.5227 79.9783 48.388 79.9783 49.62V56H77.4703V43.878H79.9783V45.638ZM86.9257 56.154C86.471 56.154 86.0897 56 85.7817 55.692C85.4737 55.384 85.3197 55.0027 85.3197 54.548C85.3197 54.0933 85.4737 53.712 85.7817 53.404C86.0897 53.096 86.471 52.942 86.9257 52.942C87.3657 52.942 87.7397 53.096 88.0477 53.404C88.3557 53.712 88.5097 54.0933 88.5097 54.548C88.5097 55.0027 88.3557 55.384 88.0477 55.692C87.7397 56 87.3657 56.154 86.9257 56.154ZM90.3843 49.928C90.3843 48.6813 90.6336 47.5887 91.1323 46.65C91.6456 45.6967 92.3496 44.9633 93.2443 44.45C94.139 43.9367 95.1656 43.68 96.3243 43.68C97.791 43.68 99.001 44.032 99.9543 44.736C100.922 45.4253 101.575 46.4153 101.912 47.706H99.2063C98.9863 47.1047 98.6343 46.6353 98.1503 46.298C97.6663 45.9607 97.0576 45.792 96.3243 45.792C95.2976 45.792 94.4763 46.1587 93.8603 46.892C93.259 47.6107 92.9583 48.6227 92.9583 49.928C92.9583 51.2333 93.259 52.2527 93.8603 52.986C94.4763 53.7193 95.2976 54.086 96.3243 54.086C97.7763 54.086 98.737 53.448 99.2063 52.172H101.912C101.56 53.404 100.9 54.3867 99.9323 55.12C98.9643 55.8387 97.7616 56.198 96.3243 56.198C95.1656 56.198 94.139 55.9413 93.2443 55.428C92.3496 54.9 91.6456 54.1667 91.1323 53.228C90.6336 52.2747 90.3843 51.1747 90.3843 49.928ZM109.67 56.198C108.526 56.198 107.492 55.9413 106.568 55.428C105.644 54.9 104.918 54.1667 104.39 53.228C103.862 52.2747 103.598 51.1747 103.598 49.928C103.598 48.696 103.869 47.6033 104.412 46.65C104.954 45.6967 105.695 44.9633 106.634 44.45C107.572 43.9367 108.621 43.68 109.78 43.68C110.938 43.68 111.987 43.9367 112.926 44.45C113.864 44.9633 114.605 45.6967 115.148 46.65C115.69 47.6033 115.962 48.696 115.962 49.928C115.962 51.16 115.683 52.2527 115.126 53.206C114.568 54.1593 113.806 54.9 112.838 55.428C111.884 55.9413 110.828 56.198 109.67 56.198ZM109.67 54.02C110.315 54.02 110.916 53.866 111.474 53.558C112.046 53.25 112.508 52.788 112.86 52.172C113.212 51.556 113.388 50.808 113.388 49.928C113.388 49.048 113.219 48.3073 112.882 47.706C112.544 47.09 112.097 46.628 111.54 46.32C110.982 46.012 110.381 45.858 109.736 45.858C109.09 45.858 108.489 46.012 107.932 46.32C107.389 46.628 106.956 47.09 106.634 47.706C106.311 48.3073 106.15 49.048 106.15 49.928C106.15 51.2333 106.48 52.2453 107.14 52.964C107.814 53.668 108.658 54.02 109.67 54.02Z" fill="white"/>
</svg>
