<svg width="136" height="98" viewBox="0 0 136 98" fill="none" xmlns="http://www.w3.org/2000/svg">
<path d="M12.1918 46.184V55H10.3678V53.96C10.0798 54.3227 9.70115 54.6107 9.23181 54.824C8.77315 55.0267 8.28248 55.128 7.75981 55.128C7.06648 55.128 6.44248 54.984 5.88781 54.696C5.34381 54.408 4.91181 53.9813 4.59181 53.416C4.28248 52.8507 4.12781 52.168 4.12781 51.368V46.184H5.93581V51.096C5.93581 51.8853 6.13315 52.4933 6.52781 52.92C6.92248 53.336 7.46115 53.544 8.14381 53.544C8.82648 53.544 9.36515 53.336 9.75981 52.92C10.1651 52.4933 10.3678 51.8853 10.3678 51.096V46.184H12.1918ZM19.0464 46.04C19.7398 46.04 20.3584 46.184 20.9024 46.472C21.4571 46.76 21.8891 47.1867 22.1984 47.752C22.5078 48.3173 22.6624 49 22.6624 49.8V55H20.8544V50.072C20.8544 49.2827 20.6571 48.68 20.2624 48.264C19.8678 47.8373 19.3291 47.624 18.6464 47.624C17.9638 47.624 17.4198 47.8373 17.0144 48.264C16.6198 48.68 16.4224 49.2827 16.4224 50.072V55H14.5984V46.184H16.4224V47.192C16.7211 46.8293 17.0998 46.5467 17.5584 46.344C18.0278 46.1413 18.5238 46.04 19.0464 46.04ZM26.8131 43.16V55H24.9891V43.16H26.8131ZM33.0318 55.144C32.1998 55.144 31.4478 54.9573 30.7758 54.584C30.1038 54.2 29.5758 53.6667 29.1918 52.984C28.8078 52.2907 28.6158 51.4907 28.6158 50.584C28.6158 49.688 28.8131 48.8933 29.2078 48.2C29.6025 47.5067 30.1411 46.9733 30.8238 46.6C31.5065 46.2267 32.2691 46.04 33.1118 46.04C33.9545 46.04 34.7171 46.2267 35.3998 46.6C36.0825 46.9733 36.6211 47.5067 37.0158 48.2C37.4105 48.8933 37.6078 49.688 37.6078 50.584C37.6078 51.48 37.4051 52.2747 36.9998 52.968C36.5945 53.6613 36.0398 54.2 35.3358 54.584C34.6425 54.9573 33.8745 55.144 33.0318 55.144ZM33.0318 53.56C33.5011 53.56 33.9385 53.448 34.3438 53.224C34.7598 53 35.0958 52.664 35.3518 52.216C35.6078 51.768 35.7358 51.224 35.7358 50.584C35.7358 49.944 35.6131 49.4053 35.3678 48.968C35.1225 48.52 34.7971 48.184 34.3918 47.96C33.9865 47.736 33.5491 47.624 33.0798 47.624C32.6105 47.624 32.1731 47.736 31.7678 47.96C31.3731 48.184 31.0585 48.52 30.8238 48.968C30.5891 49.4053 30.4718 49.944 30.4718 50.584C30.4718 51.5333 30.7118 52.2693 31.1918 52.792C31.6825 53.304 32.2958 53.56 33.0318 53.56ZM38.8029 50.584C38.8029 49.6773 38.9843 48.8827 39.3469 48.2C39.7203 47.5067 40.2323 46.9733 40.8829 46.6C41.5336 46.2267 42.2803 46.04 43.1229 46.04C44.1896 46.04 45.0696 46.296 45.7629 46.808C46.4669 47.3093 46.9416 48.0293 47.1869 48.968H45.2189C45.0589 48.5307 44.8029 48.1893 44.4509 47.944C44.0989 47.6987 43.6563 47.576 43.1229 47.576C42.3763 47.576 41.7789 47.8427 41.3309 48.376C40.8936 48.8987 40.6749 49.6347 40.6749 50.584C40.6749 51.5333 40.8936 52.2747 41.3309 52.808C41.7789 53.3413 42.3763 53.608 43.1229 53.608C44.1789 53.608 44.8776 53.144 45.2189 52.216H47.1869C46.9309 53.112 46.4509 53.8267 45.7469 54.36C45.0429 54.8827 44.1683 55.144 43.1229 55.144C42.2803 55.144 41.5336 54.9573 40.8829 54.584C40.2323 54.2 39.7203 53.6667 39.3469 52.984C38.9843 52.2907 38.8029 51.4907 38.8029 50.584ZM52.4927 50.6L56.5567 55H54.0927L50.8287 51.208V55H49.0047V43.16H50.8287V50.04L54.0287 46.184H56.5567L52.4927 50.6ZM57.2561 50.552C57.2561 49.6667 57.4374 48.8827 57.8001 48.2C58.1734 47.5173 58.6747 46.9893 59.3041 46.616C59.9441 46.232 60.6534 46.04 61.4321 46.04C62.0081 46.04 62.5734 46.168 63.1281 46.424C63.6934 46.6693 64.1414 47 64.4721 47.416V43.16H66.3121V55H64.4721V53.672C64.1734 54.0987 63.7574 54.4507 63.2241 54.728C62.7014 55.0053 62.0987 55.144 61.4161 55.144C60.6481 55.144 59.9441 54.952 59.3041 54.568C58.6747 54.1733 58.1734 53.6293 57.8001 52.936C57.4374 52.232 57.2561 51.4373 57.2561 50.552ZM64.4721 50.584C64.4721 49.976 64.3441 49.448 64.0881 49C63.8427 48.552 63.5174 48.2107 63.1121 47.976C62.7067 47.7413 62.2694 47.624 61.8001 47.624C61.3307 47.624 60.8934 47.7413 60.4881 47.976C60.0827 48.2 59.7521 48.536 59.4961 48.984C59.2507 49.4213 59.1281 49.944 59.1281 50.552C59.1281 51.16 59.2507 51.6933 59.4961 52.152C59.7521 52.6107 60.0827 52.9627 60.4881 53.208C60.9041 53.4427 61.3414 53.56 61.8001 53.56C62.2694 53.56 62.7067 53.4427 63.1121 53.208C63.5174 52.9733 63.8427 52.632 64.0881 52.184C64.3441 51.7253 64.4721 51.192 64.4721 50.584ZM69.4438 55.112C69.1131 55.112 68.8358 55 68.6118 54.776C68.3878 54.552 68.2758 54.2747 68.2758 53.944C68.2758 53.6133 68.3878 53.336 68.6118 53.112C68.8358 52.888 69.1131 52.776 69.4438 52.776C69.7638 52.776 70.0358 52.888 70.2598 53.112C70.4838 53.336 70.5958 53.6133 70.5958 53.944C70.5958 54.2747 70.4838 54.552 70.2598 54.776C70.0358 55 69.7638 55.112 69.4438 55.112ZM76.2632 47.672H74.6312V55H72.7912V47.672H71.7512V46.184H72.7912V45.56C72.7912 44.5467 73.0579 43.8107 73.5912 43.352C74.1352 42.8827 74.9832 42.648 76.1352 42.648V44.168C75.5805 44.168 75.1912 44.2747 74.9672 44.488C74.7432 44.6907 74.6312 45.048 74.6312 45.56V46.184H76.2632V47.672ZM78.8077 45.016C78.477 45.016 78.1997 44.904 77.9757 44.68C77.7517 44.456 77.6397 44.1787 77.6397 43.848C77.6397 43.5173 77.7517 43.24 77.9757 43.016C78.1997 42.792 78.477 42.68 78.8077 42.68C79.1277 42.68 79.3997 42.792 79.6237 43.016C79.8477 43.24 79.9597 43.5173 79.9597 43.848C79.9597 44.1787 79.8477 44.456 79.6237 44.68C79.3997 44.904 79.1277 45.016 78.8077 45.016ZM79.7037 46.184V55H77.8797V46.184H79.7037ZM86.5464 46.04C87.2398 46.04 87.8584 46.184 88.4024 46.472C88.9571 46.76 89.3891 47.1867 89.6984 47.752C90.0078 48.3173 90.1624 49 90.1624 49.8V55H88.3544V50.072C88.3544 49.2827 88.1571 48.68 87.7624 48.264C87.3678 47.8373 86.8291 47.624 86.1464 47.624C85.4638 47.624 84.9198 47.8373 84.5144 48.264C84.1198 48.68 83.9224 49.2827 83.9224 50.072V55H82.0984V46.184H83.9224V47.192C84.2211 46.8293 84.5998 46.5467 85.0584 46.344C85.5278 46.1413 86.0238 46.04 86.5464 46.04ZM91.8811 50.552C91.8811 49.6667 92.0624 48.8827 92.4251 48.2C92.7984 47.5173 93.2997 46.9893 93.9291 46.616C94.5691 46.232 95.2731 46.04 96.0411 46.04C96.7344 46.04 97.3371 46.1787 97.8491 46.456C98.3717 46.7227 98.7877 47.0587 99.0971 47.464V46.184H100.937V55H99.0971V53.688C98.7877 54.104 98.3664 54.4507 97.8331 54.728C97.2997 55.0053 96.6917 55.144 96.0091 55.144C95.2517 55.144 94.5584 54.952 93.9291 54.568C93.2997 54.1733 92.7984 53.6293 92.4251 52.936C92.0624 52.232 91.8811 51.4373 91.8811 50.552ZM99.0971 50.584C99.0971 49.976 98.9691 49.448 98.7131 49C98.4677 48.552 98.1424 48.2107 97.7371 47.976C97.3317 47.7413 96.8944 47.624 96.4251 47.624C95.9557 47.624 95.5184 47.7413 95.1131 47.976C94.7077 48.2 94.3771 48.536 94.1211 48.984C93.8757 49.4213 93.7531 49.944 93.7531 50.552C93.7531 51.16 93.8757 51.6933 94.1211 52.152C94.3771 52.6107 94.7077 52.9627 95.1131 53.208C95.5291 53.4427 95.9664 53.56 96.4251 53.56C96.8944 53.56 97.3317 53.4427 97.7371 53.208C98.1424 52.9733 98.4677 52.632 98.7131 52.184C98.9691 51.7253 99.0971 51.192 99.0971 50.584ZM107.781 46.04C108.474 46.04 109.093 46.184 109.637 46.472C110.191 46.76 110.623 47.1867 110.933 47.752C111.242 48.3173 111.397 49 111.397 49.8V55H109.589V50.072C109.589 49.2827 109.391 48.68 108.997 48.264C108.602 47.8373 108.063 47.624 107.381 47.624C106.698 47.624 106.154 47.8373 105.749 48.264C105.354 48.68 105.157 49.2827 105.157 50.072V55H103.333V46.184H105.157V47.192C105.455 46.8293 105.834 46.5467 106.293 46.344C106.762 46.1413 107.258 46.04 107.781 46.04ZM113.115 50.584C113.115 49.6773 113.297 48.8827 113.659 48.2C114.033 47.5067 114.545 46.9733 115.195 46.6C115.846 46.2267 116.593 46.04 117.435 46.04C118.502 46.04 119.382 46.296 120.075 46.808C120.779 47.3093 121.254 48.0293 121.499 48.968H119.531C119.371 48.5307 119.115 48.1893 118.763 47.944C118.411 47.6987 117.969 47.576 117.435 47.576C116.689 47.576 116.091 47.8427 115.643 48.376C115.206 48.8987 114.987 49.6347 114.987 50.584C114.987 51.5333 115.206 52.2747 115.643 52.808C116.091 53.3413 116.689 53.608 117.435 53.608C118.491 53.608 119.19 53.144 119.531 52.216H121.499C121.243 53.112 120.763 53.8267 120.059 54.36C119.355 54.8827 118.481 55.144 117.435 55.144C116.593 55.144 115.846 54.9573 115.195 54.584C114.545 54.2 114.033 53.6667 113.659 52.984C113.297 52.2907 113.115 51.4907 113.115 50.584ZM131.397 50.376C131.397 50.7067 131.376 51.0053 131.333 51.272H124.597C124.651 51.976 124.912 52.5413 125.381 52.968C125.851 53.3947 126.427 53.608 127.109 53.608C128.091 53.608 128.784 53.1973 129.189 52.376H131.157C130.891 53.1867 130.405 53.8533 129.701 54.376C129.008 54.888 128.144 55.144 127.109 55.144C126.267 55.144 125.509 54.9573 124.837 54.584C124.176 54.2 123.653 53.6667 123.269 52.984C122.896 52.2907 122.709 51.4907 122.709 50.584C122.709 49.6773 122.891 48.8827 123.253 48.2C123.627 47.5067 124.144 46.9733 124.805 46.6C125.477 46.2267 126.245 46.04 127.109 46.04C127.941 46.04 128.683 46.2213 129.333 46.584C129.984 46.9467 130.491 47.4587 130.853 48.12C131.216 48.7707 131.397 49.5227 131.397 50.376ZM129.493 49.8C129.483 49.128 129.243 48.5893 128.773 48.184C128.304 47.7787 127.723 47.576 127.029 47.576C126.4 47.576 125.861 47.7787 125.413 48.184C124.965 48.5787 124.699 49.1173 124.613 49.8H129.493Z" fill="white"/>
</svg>
