<svg width="619" height="619" viewBox="0 0 619 619" fill="none" xmlns="http://www.w3.org/2000/svg">
<g clip-path="url(#clip0_76_6)">
<path d="M619 0H0V619H619V0Z" fill="#0749FF"/>
<path d="M479.725 259.159C479.725 249.532 474.619 240.642 466.323 235.816L346.292 166.145C328.422 155.781 306.085 168.736 306.085 189.488V241.307C304.193 239.168 302.019 237.291 299.49 235.816L179.482 166.145C161.613 155.757 139.275 168.736 139.275 189.488V359.851C139.275 369.479 144.381 378.368 152.677 383.194L272.685 452.865C290.555 463.229 312.892 450.274 312.892 429.522V259.159C312.892 254.334 311.592 249.675 309.276 245.634L479.725 440.528V259.159Z" fill="white"/>
</g>
<defs>
<clipPath id="clip0_76_6">
<rect width="619" height="619" rx="309.5" fill="white"/>
</clipPath>
</defs>
</svg>
