<svg width="16" height="16" viewBox="0 0 16 16" fill="none" xmlns="http://www.w3.org/2000/svg">
<path d="M15.4692 10.8997L13.6248 3.62537C13.5763 3.43599 13.4735 3.26488 13.3292 3.133C13.1849 3.00112 13.0053 2.91419 12.8123 2.88287L10.5585 2.51287C10.3101 2.47291 10.0556 2.52678 9.84471 2.66401C9.63378 2.80125 9.48143 3.01203 9.41729 3.25537L9.40416 3.30849C9.39567 3.34224 9.39431 3.3774 9.40018 3.4117C9.40605 3.44601 9.41902 3.47871 9.43826 3.50772C9.4575 3.53672 9.48258 3.56139 9.5119 3.58014C9.54122 3.59889 9.57414 3.61132 9.60854 3.61662C10.1257 3.69252 10.6359 3.80998 11.1342 3.96787C11.2587 4.00545 11.3643 4.08901 11.4296 4.20159C11.4948 4.31418 11.5148 4.44735 11.4854 4.57412C11.4685 4.64017 11.4383 4.70208 11.3967 4.75604C11.355 4.81 11.3027 4.85486 11.2431 4.88788C11.1834 4.92089 11.1177 4.94136 11.0498 4.94802C10.982 4.95468 10.9135 4.9474 10.8485 4.92662C8.99968 4.35961 7.02364 4.35743 5.17354 4.92037C5.04833 4.96246 4.91172 4.95472 4.79208 4.89874C4.67243 4.84276 4.57895 4.74284 4.53104 4.61974C4.50827 4.55658 4.49845 4.48947 4.50218 4.42243C4.5059 4.35538 4.5231 4.28978 4.55273 4.22953C4.58236 4.16927 4.62382 4.1156 4.67464 4.07172C4.72547 4.02784 4.78461 3.99465 4.84854 3.97412C5.35304 3.81342 5.86973 3.69386 6.39354 3.61662C6.42794 3.61132 6.46085 3.59889 6.49017 3.58014C6.51949 3.56139 6.54458 3.53672 6.56382 3.50772C6.58306 3.47871 6.59602 3.44601 6.6019 3.4117C6.60777 3.3774 6.60641 3.34224 6.59791 3.30849L6.58479 3.25537C6.52063 3.01182 6.36806 2.80091 6.15684 2.66375C5.94561 2.52659 5.69087 2.47302 5.44229 2.51349L3.18729 2.88349C2.9944 2.91477 2.81481 3.0016 2.6705 3.13337C2.52619 3.26513 2.42343 3.43611 2.37479 3.62537L0.530412 10.8997C0.472582 11.1284 0.497751 11.3702 0.601439 11.582C0.705128 11.7938 0.88061 11.962 1.09666 12.0566L5.28416 13.9135C5.41008 13.9695 5.54611 13.9991 5.68389 14.0006C5.82168 14.0021 5.95831 13.9753 6.0854 13.9221C6.21248 13.8688 6.32732 13.7901 6.42288 13.6908C6.51843 13.5915 6.59267 13.4738 6.64104 13.3447L6.85916 12.7541C6.87216 12.7187 6.87699 12.6809 6.87329 12.6434C6.8696 12.6059 6.85747 12.5697 6.83781 12.5375C6.81816 12.5054 6.79148 12.4781 6.75979 12.4577C6.7281 12.4373 6.6922 12.4243 6.65479 12.4197C6.04763 12.3462 5.4486 12.2165 4.86541 12.0322C4.74136 11.9945 4.63621 11.9112 4.57114 11.7991C4.50608 11.6869 4.48594 11.5543 4.51479 11.4279C4.53151 11.3616 4.56162 11.2995 4.60328 11.2454C4.64493 11.1912 4.69724 11.1462 4.75698 11.113C4.81672 11.0799 4.88262 11.0593 4.9506 11.0526C5.01859 11.0459 5.08723 11.0533 5.15229 11.0741C7.00808 11.6424 8.99149 11.6424 10.8473 11.0741C10.9123 11.0533 10.9808 11.0461 11.0487 11.0528C11.1166 11.0595 11.1824 11.08 11.242 11.1131C11.3017 11.1462 11.3539 11.1911 11.3956 11.2451C11.4372 11.2992 11.4674 11.3611 11.4842 11.4272C11.5133 11.5537 11.4934 11.6866 11.4283 11.7989C11.3632 11.9113 11.2578 11.9947 11.1335 12.0322C10.5506 12.2166 9.95176 12.3463 9.34479 12.4197C9.30738 12.4243 9.27148 12.4373 9.23979 12.4577C9.20809 12.4781 9.18142 12.5054 9.16177 12.5375C9.14211 12.5697 9.12998 12.6059 9.12628 12.6434C9.12259 12.6809 9.12742 12.7187 9.14041 12.7541L9.35854 13.3447C9.40698 13.4737 9.48126 13.5914 9.57683 13.6907C9.6724 13.7899 9.78723 13.8685 9.91429 13.9218C10.0413 13.9751 10.1779 14.0018 10.3157 14.0004C10.4535 13.9989 10.5895 13.9694 10.7154 13.9135L14.9029 12.0566C15.119 11.962 15.2944 11.7938 15.3981 11.582C15.5018 11.3702 15.527 11.1284 15.4692 10.8997ZM5.74979 9.50037C5.60145 9.50037 5.45645 9.45638 5.33311 9.37397C5.20977 9.29156 5.11364 9.17442 5.05688 9.03738C5.00011 8.90033 4.98526 8.74953 5.0142 8.60405C5.04314 8.45856 5.11457 8.32493 5.21946 8.22004C5.32435 8.11515 5.45798 8.04372 5.60347 8.01478C5.74896 7.98584 5.89976 8.00069 6.0368 8.05746C6.17385 8.11422 6.29098 8.21035 6.37339 8.33369C6.4558 8.45703 6.49979 8.60203 6.49979 8.75037C6.49979 8.94928 6.42077 9.14004 6.28012 9.2807C6.13947 9.42135 5.9487 9.50037 5.74979 9.50037ZM10.2498 9.50037C10.1015 9.50037 9.95645 9.45638 9.83311 9.37397C9.70977 9.29156 9.61364 9.17442 9.55688 9.03738C9.50011 8.90033 9.48526 8.74953 9.5142 8.60405C9.54314 8.45856 9.61457 8.32493 9.71946 8.22004C9.82435 8.11515 9.95798 8.04372 10.1035 8.01478C10.249 7.98584 10.3998 8.00069 10.5368 8.05746C10.6738 8.11422 10.791 8.21035 10.8734 8.33369C10.9558 8.45703 10.9998 8.60203 10.9998 8.75037C10.9998 8.94928 10.9208 9.14004 10.7801 9.2807C10.6395 9.42135 10.4487 9.50037 10.2498 9.50037Z" fill="#4B5563"/>
</svg>
