<svg width="20" height="14" viewBox="0 0 20 14" fill="none" xmlns="http://www.w3.org/2000/svg">
<path d="M16.9575 1.16131C15.6412 0.610496 14.2511 0.220041 12.8231 0C12.6279 0.316284 12.4526 0.642414 12.2979 0.976819C10.7792 0.774345 9.23629 0.774345 7.7176 0.976819C7.57679 0.6729 7.36368 0.285512 7.19189 0C5.76293 0.217576 4.37222 0.608128 3.05659 1.16131C0.438817 4.68248 -0.269018 8.12104 0.0848995 11.5134C1.61802 12.5397 3.3306 13.322 5.15005 13.827C5.55811 13.3239 5.91924 12.7906 6.22964 12.2325C5.63704 12.0303 5.06541 11.7804 4.52154 11.4855C4.66236 11.3935 4.80318 11.2921 4.93601 11.1906C8.23111 12.5642 11.8003 12.5642 15.0555 11.1906C15.1963 11.2921 15.3282 11.3935 15.47 11.4855C14.926 11.7805 14.3542 12.0304 13.7614 12.2325C14.0722 12.7904 14.4333 13.3237 14.841 13.827C16.6613 13.3236 18.3743 12.5412 19.9066 11.5134C20.3446 7.5864 19.2218 4.17395 16.9575 1.16131ZM6.68683 9.42275C5.69595 9.42275 4.8872 8.6026 4.8872 7.59796C4.8872 6.59331 5.67577 5.77273 6.68683 5.77273C7.68709 5.77273 8.50617 6.59289 8.48599 7.59796C8.48599 8.60046 7.68709 9.42061 6.68683 9.42061V9.42275ZM13.3287 9.42275C12.3382 9.42275 11.5286 8.6026 11.5286 7.59796C11.5286 6.59331 12.3181 5.77273 13.3287 5.77273C14.3294 5.77273 15.148 6.59289 15.1278 7.59796C15.1278 8.60046 14.3397 9.42061 13.3287 9.42061V9.42275Z" fill="#E6EDFF"/>
</svg>
