<svg width="16" height="16" viewBox="0 0 16 16" fill="none" xmlns="http://www.w3.org/2000/svg">
<g clip-path="url(#clip0_6597_10366)">
<mask id="mask0_6597_10366" style="mask-type:luminance" maskUnits="userSpaceOnUse" x="0" y="0" width="16" height="16">
<path d="M16 0H0V16H16V0Z" fill="white"/>
</mask>
<g mask="url(#mask0_6597_10366)">
<path d="M65.7583 15.471C64.1683 15.471 62.9387 14.9574 62.0175 13.9822C61.1484 13.0071 60.6838 11.6227 60.6838 9.8249C60.6838 8.07931 61.0923 6.6427 61.9654 5.61541C62.8346 4.53595 63.964 4.02231 65.4499 4.02231C66.7316 4.02231 67.7569 4.48378 68.5259 5.35859C69.2949 6.28155 69.6513 7.51349 69.6513 9.05443V9.87707H61.7612C61.7612 11.3658 62.1216 12.5456 62.8386 13.3161C63.5034 14.1387 64.5287 14.4959 65.8104 14.4959C66.4232 14.4959 66.9879 14.4437 67.4485 14.3434C67.9091 14.239 68.5259 14.0866 69.2428 13.7776V14.7527C68.63 15.0095 68.0653 15.2142 67.5526 15.3185C66.9879 15.4228 66.4232 15.471 65.7583 15.471ZM65.502 4.94928C64.4246 4.94928 63.6075 5.31043 62.9387 5.97657C62.3259 6.69487 61.9134 7.67 61.8132 9.00628H68.5779C68.5779 7.72216 68.3216 6.74704 67.7569 6.02874C67.2442 5.30642 66.4752 4.94928 65.502 4.94928ZM75.3386 4.07447C75.7992 4.07447 76.3119 4.12664 76.8246 4.22696L76.6203 5.20209C76.1477 5.09775 75.6671 5.04559 75.1865 5.0496C74.2653 5.0496 73.4963 5.45891 72.8795 6.22938C72.2667 7.05201 71.9583 8.02714 71.9583 9.25909V15.2663H70.933V4.28314H71.8021L71.9062 6.28556H71.9583C72.4189 5.46292 72.8795 4.90112 73.3921 4.59213C74.0089 4.23097 74.6217 4.07447 75.3386 4.07447ZM13.447 0.0214844H6.11751V9.87707H15.9542V2.5857C15.9582 1.20127 14.8287 0.0214844 13.447 0.0214844ZM3.86661 0.0214844H2.63703C1.25525 0.0214844 0.0737305 1.1491 0.0737305 2.58971V3.82166H3.86661V0.0214844ZM0.0737305 6.12906H3.86661V9.92924H0.0737305V6.12906ZM12.1653 15.9846H13.3949C14.7767 15.9846 15.9582 14.857 15.9582 13.4164V12.1885H12.1653V15.9846ZM6.11751 12.1885H9.9104V15.9887H6.11751V12.1885ZM0.0737305 12.1885V13.4204C0.0737305 14.8049 1.19918 15.9887 2.63703 15.9887H3.86661V12.1885H0.0737305Z" fill="#9CA3AF"/>
</g>
</g>
<defs>
<clipPath id="clip0_6597_10366">
<rect width="16" height="16" fill="white"/>
</clipPath>
</defs>
</svg>
