<svg width="100" height="20" viewBox="0 0 100 20" fill="none" xmlns="http://www.w3.org/2000/svg">
<path d="M37.8088 3.10077V15.5039H35.5439L30.1477 7.69743H30.0569V15.5039H27.4346V3.10077H29.736L35.0896 10.9012H35.1987V3.10077H37.8088ZM39.6344 15.5039V3.10077H47.8466V5.26283H42.2567V8.21829H47.3015V10.3803H42.2567V15.5039H39.6344ZM48.797 5.26283V3.10077H58.9836V5.26283H55.1863V15.5039H52.5943V5.26283H48.797ZM60.32 15.5039V3.10077H65.2861C66.1985 3.10077 66.9596 3.23602 67.5693 3.50654C68.1789 3.77705 68.6372 4.15253 68.944 4.63299C69.2509 5.10941 69.4043 5.65851 69.4043 6.28027C69.4043 6.76477 69.3074 7.19072 69.1136 7.55813C68.9198 7.92147 68.6533 8.2203 68.3142 8.45441C67.9791 8.68457 67.5955 8.84813 67.1635 8.94503V9.06612C67.6359 9.08635 68.078 9.21953 68.4898 9.46581C68.9057 9.71209 69.2428 10.0574 69.5012 10.5015C69.7596 10.9415 69.8888 11.4664 69.8888 12.076C69.8888 12.7342 69.7253 13.3216 69.3983 13.8384C69.0753 14.3512 68.5968 14.757 67.9629 15.0557C67.3291 15.3545 66.5478 15.5039 65.6192 15.5039H60.32ZM62.9423 13.36H65.0802C65.8109 13.36 66.3439 13.2207 66.679 12.9421C67.0141 12.6595 67.1817 12.284 67.1817 11.8157C67.1817 11.4725 67.0989 11.1697 66.9334 10.9072C66.7678 10.6448 66.5316 10.4388 66.2248 10.2895C65.922 10.1401 65.5606 10.0654 65.1408 10.0654H62.9423V13.36ZM62.9423 8.29092H64.8864C65.2457 8.29092 65.5646 8.22837 65.8433 8.10317C66.1259 7.97403 66.348 7.79232 66.5095 7.55813C66.675 7.32396 66.7578 7.04336 66.7578 6.71632C66.7578 6.26816 66.5983 5.90681 66.2793 5.63226C65.9644 5.35771 65.5162 5.22044 64.9348 5.22044H62.9423V8.29092ZM73.8582 15.6795C73.2647 15.6795 72.7358 15.5766 72.2715 15.3706C71.8072 15.1607 71.4398 14.8519 71.1693 14.444C70.9028 14.0322 70.7695 13.5195 70.7695 12.9057C70.7695 12.389 70.8644 11.955 71.0542 11.6036C71.2439 11.2524 71.5023 10.9698 71.8294 10.7558C72.1564 10.5419 72.5279 10.3803 72.9437 10.2713C73.3636 10.1623 73.8037 10.0856 74.264 10.0412C74.805 9.98465 75.2411 9.93216 75.5721 9.88371C75.9032 9.83123 76.1434 9.75449 76.2928 9.65356C76.4422 9.55263 76.5169 9.40325 76.5169 9.20542V9.16906C76.5169 8.7855 76.3957 8.48875 76.1535 8.27883C75.9153 8.06891 75.5762 7.96387 75.136 7.96387C74.6718 7.96387 74.3023 8.06682 74.0278 8.27278C73.7533 8.47465 73.5716 8.72899 73.4827 9.03581L71.0966 8.84201C71.2178 8.27682 71.456 7.78829 71.8112 7.37644C72.1665 6.96059 72.6248 6.64163 73.186 6.41957C73.7512 6.19347 74.4053 6.08042 75.1482 6.08042C75.665 6.08042 76.1596 6.14098 76.6319 6.2621C77.1084 6.38323 77.5302 6.57097 77.8977 6.82534C78.269 7.07969 78.562 7.40673 78.776 7.80643C78.9899 8.20209 79.0969 8.67651 79.0969 9.22961V15.5039H76.6502V14.2139H76.5774C76.4281 14.5046 76.2282 14.761 75.9779 14.983C75.7276 15.2011 75.4267 15.3726 75.0755 15.4978C74.7243 15.6189 74.3185 15.6795 73.8582 15.6795ZM74.5971 13.899C74.9766 13.899 75.3117 13.8243 75.6024 13.6749C75.8931 13.5215 76.1212 13.3156 76.2867 13.0572C76.4523 12.7988 76.535 12.506 76.535 12.179V11.1919C76.4543 11.2443 76.3433 11.2928 76.2019 11.3372C76.0647 11.3776 75.9092 11.416 75.7357 11.4522C75.562 11.4846 75.3884 11.5149 75.2148 11.5431C75.0412 11.5674 74.8837 11.5895 74.7424 11.6098C74.4396 11.6542 74.1752 11.7248 73.9491 11.8217C73.7229 11.9186 73.5474 12.0498 73.4222 12.2153C73.2971 12.3768 73.2344 12.5788 73.2344 12.821C73.2344 13.1722 73.3616 13.4407 73.616 13.6264C73.8743 13.8081 74.2014 13.899 74.5971 13.899ZM83.3372 10.126V15.5039H80.7574V6.20154H83.2163V7.84278H83.3248C83.531 7.30175 83.876 6.87378 84.3605 6.55886C84.845 6.2399 85.4326 6.08042 86.1233 6.08042C86.769 6.08042 87.3326 6.22173 87.8132 6.50435C88.293 6.78698 88.6667 7.19072 88.9333 7.71559C89.2 8.23643 89.3326 8.85821 89.3326 9.58092V15.5039H86.7527V10.0412C86.7574 9.47185 86.6116 9.02775 86.3171 8.70883C86.0225 8.38581 85.6163 8.22433 85.1 8.22433C84.7527 8.22433 84.4457 8.29899 84.1791 8.44837C83.9163 8.59775 83.7108 8.81581 83.5612 9.10247C83.4163 9.38511 83.3411 9.72627 83.3372 10.126ZM93.3628 12.827L93.369 9.73232H93.7442L96.724 6.20154H99.6853L95.6822 10.877H95.0705L93.3628 12.827ZM91.0256 15.5039V3.10077H93.6054V15.5039H91.0256ZM96.8395 15.5039L94.1015 11.4522L95.8217 9.62937L99.8612 15.5039H96.8395Z" fill="#E5E7EB"/>
<mask id="mask0_153_15276" style="mask-type:luminance" maskUnits="userSpaceOnUse" x="0" y="0" width="22" height="19">
<path d="M21.7054 0H0V18.6417H21.7054V0Z" fill="white"/>
</mask>
<g mask="url(#mask0_153_15276)">
<path d="M21.7054 6.12906C21.7054 5.51871 21.3799 4.95509 20.8509 4.64917L13.1984 0.232134C12.0591 -0.424922 10.635 0.396398 10.635 1.71202V4.99729C10.5144 4.86166 10.3757 4.74261 10.2145 4.64917L2.56342 0.232134C1.42412 -0.426429 0 0.396398 0 1.71202V12.5128C0 13.1231 0.325514 13.6867 0.854473 13.9926L8.50558 18.4097C9.64488 19.0667 11.069 18.2454 11.069 16.9297V6.12906C11.069 5.82313 10.986 5.52775 10.8384 5.27157L21.7054 17.6275V6.12906Z" fill="#0749FF"/>
</g>
</svg>
