<svg width="136" height="27" viewBox="0 0 136 27" fill="none" xmlns="http://www.w3.org/2000/svg">
<path d="M51.4215 4.24121V21.2063H48.3412L41.0024 10.5285H40.8788V21.2063H37.3125V4.24121H40.4424L47.7233 14.9107H47.8717V4.24121H51.4215ZM53.9043 21.2063V4.24121H65.0726V7.19848H57.4707V11.241H64.3318V14.1983H57.4707V21.2063H53.9043ZM66.3653 7.19848V4.24121H80.2192V7.19848H75.0548V21.2063H71.5297V7.19848H66.3653ZM82.0365 21.2063V4.24121H88.7908C90.0315 4.24121 91.0665 4.42622 91.8957 4.79622C92.7249 5.16623 93.3478 5.67982 93.7655 6.33701C94.1826 6.98865 94.3914 7.7397 94.3914 8.59018C94.3914 9.25288 94.2598 9.8355 93.9959 10.338C93.7327 10.835 93.37 11.2438 92.9091 11.564C92.4531 11.8788 91.9315 12.1025 91.3439 12.2351V12.4007C91.9865 12.4283 92.5878 12.6105 93.1476 12.9474C93.713 13.2843 94.1714 13.7565 94.523 14.364C94.8746 14.9659 95.0501 15.6839 95.0501 16.5177C95.0501 17.4179 94.8276 18.2214 94.3834 18.9283C93.944 19.6296 93.2934 20.1847 92.4308 20.5933C91.5688 21.002 90.5067 21.2063 89.2437 21.2063H82.0365ZM85.603 18.2739H88.5102C89.5044 18.2739 90.2292 18.0834 90.6846 17.7022C91.1406 17.3157 91.3686 16.8021 91.3686 16.1615C91.3686 15.6921 91.2562 15.278 91.0306 14.9189C90.8057 14.56 90.4844 14.2783 90.0673 14.074C89.6552 13.8697 89.164 13.7675 88.593 13.7675H85.603V18.2739ZM85.603 11.3403H88.247C88.7358 11.3403 89.1695 11.2548 89.5483 11.0835C89.9326 10.9069 90.2348 10.6584 90.4541 10.338C90.6797 10.0177 90.7921 9.63394 90.7921 9.18658C90.7921 8.57362 90.5753 8.07936 90.1415 7.7038C89.7133 7.32831 89.1034 7.14053 88.3131 7.14053H85.603V11.3403ZM100.449 21.4465C99.6417 21.4465 98.9225 21.3058 98.291 21.024C97.6595 20.7369 97.1596 20.3145 96.792 19.7566C96.4292 19.1934 96.2482 18.492 96.2482 17.6526C96.2482 16.9457 96.3773 16.3521 96.635 15.8715C96.8933 15.3911 97.2449 15.0045 97.6891 14.7119C98.134 14.4192 98.6395 14.1983 99.2049 14.0492C99.7758 13.9001 100.375 13.7951 101 13.7343C101.736 13.657 102.33 13.5853 102.779 13.519C103.23 13.4472 103.557 13.3422 103.759 13.2042C103.963 13.0661 104.065 12.8618 104.065 12.5912V12.5415C104.065 12.0168 103.9 11.611 103.57 11.3238C103.247 11.0367 102.785 10.893 102.186 10.893C101.555 10.893 101.052 11.0338 100.679 11.3156C100.306 11.5916 100.059 11.9395 99.9377 12.3592L96.6931 12.0941C96.8575 11.3211 97.1818 10.6529 97.665 10.0895C98.1476 9.52074 98.7711 9.08444 99.5342 8.78068C100.303 8.47142 101.193 8.31682 102.203 8.31682C102.906 8.31682 103.578 8.39962 104.221 8.56534C104.869 8.731 105.443 8.9878 105.942 9.33568C106.447 9.68362 106.846 10.1309 107.137 10.6776C107.428 11.2189 107.573 11.8678 107.573 12.6243V21.2063H104.246V19.4418H104.147C103.944 19.8394 103.672 20.1902 103.331 20.4939C102.991 20.7921 102.582 21.0268 102.104 21.198C101.626 21.3637 101.075 21.4465 100.449 21.4465ZM101.453 19.0111C101.969 19.0111 102.425 18.9089 102.821 18.7046C103.216 18.4948 103.526 18.2131 103.751 17.8597C103.977 17.5062 104.089 17.1058 104.089 16.6585V15.3083C103.979 15.38 103.829 15.4464 103.636 15.5071C103.449 15.5623 103.238 15.6148 103.002 15.6645C102.766 15.7086 102.53 15.7501 102.294 15.7887C102.058 15.8219 101.843 15.8522 101.651 15.8799C101.24 15.9407 100.88 16.0372 100.572 16.1698C100.265 16.3023 100.026 16.4818 99.8555 16.7082C99.6856 16.9291 99.6003 17.2053 99.6003 17.5366C99.6003 18.0171 99.7733 18.3843 100.119 18.6383C100.47 18.8869 100.915 19.0111 101.453 19.0111ZM113.34 13.8504V21.2063H109.832V8.48248H113.176V10.7274H113.323C113.604 9.98738 114.073 9.40198 114.731 8.97124C115.391 8.53494 116.19 8.31682 117.129 8.31682C118.008 8.31682 118.774 8.5101 119.428 8.89666C120.08 9.28322 120.588 9.8355 120.951 10.5534C121.313 11.2658 121.494 12.1163 121.494 13.1048V21.2063H117.985V13.7343C117.992 12.9557 117.793 12.3482 117.393 11.912C116.992 11.4702 116.439 11.2493 115.737 11.2493C115.265 11.2493 114.848 11.3514 114.485 11.5557C114.128 11.76 113.848 12.0583 113.645 12.4504C113.447 12.837 113.346 13.3037 113.34 13.8504ZM126.975 17.5449L126.983 13.3119H127.494L131.546 8.48248H135.573L130.129 14.8776H129.297L126.975 17.5449ZM123.796 21.2063V4.24121H127.305V21.2063H123.796ZM131.703 21.2063L127.98 15.6645L130.319 13.1711L135.813 21.2063H131.703Z" fill="white"/>
<mask id="mask0_3878_2653" style="mask-type:luminance" maskUnits="userSpaceOnUse" x="0" y="0" width="30" height="26">
<path d="M29.5194 0H0V25.4983H29.5194V0Z" fill="white"/>
</mask>
<g mask="url(#mask0_3878_2653)">
<path d="M29.5194 8.38327C29.5194 7.54842 29.0767 6.77753 28.3573 6.35903L17.9498 0.317384C16.4003 -0.581344 14.4636 0.542066 14.4636 2.34158V6.83524C14.2996 6.64969 14.111 6.48687 13.8917 6.35903L3.48625 0.317384C1.93681 -0.583405 0 0.542066 0 2.34158V17.115C0 17.9497 0.442699 18.7207 1.16208 19.1391L11.5676 25.1808C13.117 26.0795 15.0539 24.9561 15.0539 23.1565V8.38327C15.0539 7.96483 14.941 7.56078 14.7402 7.21037L29.5194 24.111V8.38327Z" fill="white"/>
</g>
</svg>
