<svg width="16" height="16" viewBox="0 0 16 16" fill="none" xmlns="http://www.w3.org/2000/svg">
<mask id="mask0_2612_2813" style="mask-type:luminance" maskUnits="userSpaceOnUse" x="3" y="0" width="10" height="16">
<path d="M12.8121 0.703979H3.16797V15.2918H12.8121V0.703979Z" fill="white"/>
</mask>
<g mask="url(#mask0_2612_2813)">
<path d="M3.31055 9.09149L3.66031 8.93949L7.99023 7.05725L12.6699 9.09149L10.9115 12.7213L6.61295 13.3293L3.38095 9.84125L3.31055 9.09149Z" fill="#133444"/>
<path d="M11.696 6.85311C10.9233 5.92264 9.82865 5.31717 8.6298 5.15711C8.6042 5.15349 8.5786 5.15029 8.553 5.14751C8.17879 5.10399 7.80081 5.10399 7.4266 5.14751C7.401 5.15048 7.3754 5.15368 7.3498 5.15711C6.15095 5.31717 5.05629 5.92264 4.28356 6.85311L4.089 7.17567L3.76484 7.71199L3.52772 8.10591C3.52324 8.11647 3.51876 8.12735 3.5146 8.13791L3.51172 8.14527L4.03492 8.45471L7.35012 10.4157L7.99012 10.7942V6.10719L7.35012 6.39775V5.69599L7.99012 5.40511L8.63012 5.69599L11.8909 7.17695L11.696 6.85311Z" fill="#C42370"/>
<path d="M12.8121 10.258C12.8121 11.8189 12.0704 13.2794 10.9203 14.2208C10.4681 14.5931 9.95136 14.8791 9.39581 15.0647C8.9424 15.2151 8.46778 15.2918 7.99005 15.2919C5.32701 15.2919 3.16797 12.921 3.16797 10.258C3.16764 9.8648 3.21546 9.47309 3.31037 9.09155L7.99005 11.8599L12.6697 9.09155C12.7646 9.47309 12.8124 9.8648 12.8121 10.258Z" fill="#1C4D6B"/>
<path d="M7.42641 5.14841L7.98961 5.40409L7.34961 5.69497V5.11353L7.42641 5.14841Z" fill="black"/>
<path d="M7.34961 6.39774L7.98961 6.10718V10.7961L7.34961 10.4176V6.39774Z" fill="black"/>
<path d="M7.99023 6.10718V10.7961L12.4744 8.14366L7.99023 6.10718Z" fill="#1D4259"/>
<path d="M7.99023 0.703979V6.10718L12.4744 8.14366L7.99023 0.703979Z" fill="#4B6B9A"/>
<path d="M7.99002 6.10712V10.7961L7.35002 10.4175L3.51162 8.14552L3.50586 8.142L3.5145 8.13816C3.51866 8.1276 3.52314 8.11672 3.52762 8.10616L4.08858 7.17528L7.35002 5.69592V6.39992L7.99002 6.10712Z" fill="#343535"/>
<path d="M7.99002 6.10718V10.7961L7.35002 10.4176L3.51162 8.14718L3.50586 8.14366L3.5145 8.13982L7.35002 6.39774L7.99002 6.10718Z" fill="#3E5578"/>
<path d="M7.99002 0.703979V6.10718L3.50586 8.14366L7.99002 0.703979Z" fill="#6DB2D8"/>
<path d="M6.17578 14.9072C6.24266 14.9367 6.3105 14.9645 6.37866 14.9907C6.30913 14.9645 6.24148 14.9367 6.17578 14.9072Z" fill="#335F8A"/>
<path d="M6.37695 14.9907C6.44543 15.017 6.51423 15.0416 6.58399 15.0646C6.51423 15.0418 6.44521 15.0172 6.37695 14.9907Z" fill="#335F8A"/>
<path d="M6.76172 15.1196C6.81484 15.1347 6.86828 15.1491 6.92172 15.1622C6.86818 15.149 6.81484 15.1348 6.76172 15.1196Z" fill="#335F8A"/>
<path d="M3.31037 9.09155L7.99005 11.8599C7.92755 12.2811 7.81507 12.6934 7.65501 13.088C7.28061 13.993 6.52413 14.9501 5.06045 14.2221C3.90973 13.28 3.16797 11.8189 3.16797 10.258C3.16764 9.8648 3.21546 9.47309 3.31037 9.09155Z" fill="#6DB2D8"/>
<path d="M10.9194 14.2211L10.9079 14.2304C10.8836 14.2502 10.8593 14.2698 10.8346 14.289L10.8282 14.2941C10.8016 14.3154 10.7747 14.3359 10.7476 14.3555C10.7185 14.3773 10.689 14.399 10.6593 14.4195C10.6295 14.44 10.5997 14.4614 10.5697 14.4819C10.5396 14.5024 10.5165 14.5178 10.49 14.535L10.4753 14.5446C10.4471 14.5629 10.4189 14.5808 10.3908 14.5981C10.3874 14.6005 10.3839 14.6026 10.3802 14.6045C10.3511 14.6227 10.322 14.6403 10.2925 14.6573C10.2631 14.6742 10.2285 14.6941 10.1965 14.7117C10.1645 14.7293 10.1325 14.7462 10.1005 14.7629L10.097 14.7648C10.065 14.7814 10.033 14.7968 10.001 14.8134C9.96903 14.8301 9.93703 14.8454 9.90247 14.8611C9.86791 14.8768 9.83591 14.8931 9.80263 14.9066C9.73575 14.936 9.66791 14.9638 9.59975 14.9901C9.53159 15.0163 9.46247 15.041 9.39271 15.064C9.36487 15.0733 9.33703 15.0822 9.30887 15.0909C9.28071 15.0995 9.24487 15.1101 9.21447 15.119C9.16135 15.1341 9.10791 15.1485 9.05447 15.1616C9.03431 15.1667 9.01383 15.1715 8.99335 15.176L8.95911 15.184C8.93063 15.1904 8.90215 15.1965 8.87335 15.2022C8.84455 15.208 8.82087 15.2128 8.79431 15.2176C8.76775 15.2224 8.74599 15.2266 8.72167 15.2304C8.69735 15.2342 8.66791 15.239 8.64103 15.2429C8.62791 15.2451 8.61479 15.247 8.60135 15.2486L8.54087 15.2566L8.50727 15.2608C8.48519 15.2637 8.46279 15.2659 8.44039 15.2682C8.41287 15.271 8.38567 15.2736 8.35815 15.2758C8.33671 15.2774 8.31527 15.2794 8.29415 15.2806C8.27303 15.2819 8.25703 15.2832 8.23815 15.2838H8.23559C8.21383 15.2838 8.19207 15.2864 8.17159 15.287C8.14151 15.287 8.11111 15.2893 8.08071 15.2899C8.05031 15.2906 8.01991 15.2899 7.98919 15.2899C7.95847 15.2899 7.92807 15.2899 7.89767 15.2899C7.86727 15.2899 7.83687 15.2899 7.80679 15.287C7.78471 15.287 7.76295 15.2851 7.74119 15.2838H7.73863C7.71975 15.2838 7.70119 15.2819 7.68263 15.2806C7.66407 15.2794 7.63975 15.2774 7.61863 15.2758C7.59111 15.2736 7.56391 15.271 7.53639 15.2682C7.51399 15.2659 7.49159 15.2637 7.46951 15.2608L7.43751 15.2566C7.41735 15.2544 7.39719 15.2515 7.37703 15.2486C7.36359 15.2486 7.35047 15.2451 7.33735 15.2429C7.31028 15.239 7.2834 15.2349 7.25671 15.2304C7.23239 15.2266 7.20807 15.2221 7.18407 15.2176C7.16007 15.2131 7.13127 15.2077 7.10503 15.2022C7.07879 15.1968 7.04775 15.1904 7.01927 15.184L6.98503 15.176C6.96455 15.1715 6.94407 15.1667 6.92391 15.1616C6.87015 15.1485 6.81671 15.1341 6.76391 15.119L6.66791 15.0909C6.63975 15.0822 6.61191 15.0733 6.58407 15.064C6.51431 15.041 6.44551 15.0163 6.37703 14.9901C6.30855 14.9638 6.23975 14.9366 6.17575 14.9072C6.14375 14.8925 6.10919 14.8771 6.07591 14.8618C6.04263 14.8464 6.00999 14.8298 5.97735 14.8141C5.94471 14.7984 5.91335 14.7821 5.88135 14.7654L5.87783 14.7635C5.84583 14.7469 5.81383 14.7296 5.78183 14.7123C5.74983 14.695 5.71783 14.6765 5.68583 14.6579C5.65383 14.6394 5.62855 14.624 5.59975 14.6051L5.58919 14.5987C5.56103 14.5814 5.53287 14.5635 5.50471 14.5453L5.48999 14.5357C5.46343 14.5184 5.43655 14.5005 5.41031 14.4826C5.38407 14.4646 5.35015 14.4413 5.32071 14.4202C5.29127 14.399 5.26151 14.3773 5.23239 14.3562C5.20327 14.335 5.17831 14.3155 5.15175 14.2947L5.14535 14.2896C5.12071 14.2704 5.09639 14.2509 5.07207 14.231L5.06055 14.2218C6.52423 14.9498 7.28071 13.9926 7.65511 13.0877C7.81514 12.6934 7.92759 12.2814 7.99015 11.8605C8.05258 12.2815 8.16496 12.6936 8.32487 13.088C8.69927 13.992 9.45575 14.9491 10.9194 14.2211Z" fill="#529BBA"/>
<path d="M9.05664 15.1622C9.1104 15.1491 9.16384 15.1347 9.21664 15.1196C9.16458 15.135 9.11126 15.1492 9.05664 15.1622Z" fill="#335F8A"/>
<path d="M9.39648 15.0646C9.46624 15.0416 9.53504 15.017 9.60352 14.9907C9.53546 15.0172 9.46647 15.0418 9.39648 15.0646Z" fill="#335F8A"/>
<path d="M9.60352 14.9907C9.67168 14.9645 9.73952 14.9367 9.8064 14.9072C9.73961 14.9367 9.672 14.9645 9.60352 14.9907Z" fill="#335F8A"/>
<path d="M12.8123 10.258C12.8123 11.8189 12.0702 13.2797 10.9198 14.2212C9.45615 14.9492 8.69967 13.992 8.32527 13.0871C8.16527 12.6928 8.05279 12.2808 7.99023 11.8599L12.6699 9.09155C12.7648 9.47309 12.8127 9.8648 12.8123 10.258Z" fill="#4B6B9A"/>
</g>
</svg>
