<svg width="16" height="16" viewBox="0 0 16 16" fill="none" xmlns="http://www.w3.org/2000/svg">
<path d="M15.3535 4.85403L13.4848 6.72278C13.1073 11.099 9.41666 14.5003 4.99979 14.5003C4.09229 14.5003 3.34416 14.3565 2.77604 14.0728C2.31791 13.8434 2.13041 13.5978 2.08354 13.5278C2.04174 13.4651 2.01465 13.3938 2.00429 13.3192C1.99393 13.2445 2.00056 13.1685 2.0237 13.0968C2.04684 13.0251 2.08588 12.9596 2.13791 12.9051C2.18994 12.8506 2.25361 12.8086 2.32416 12.7822C2.34041 12.7759 3.83916 12.2003 4.79104 11.1047C4.26315 10.6706 3.80234 10.161 3.42354 9.59216C2.64854 8.44153 1.78104 6.44278 2.04854 3.45591C2.05702 3.361 2.09244 3.27049 2.15063 3.19504C2.20883 3.11958 2.28737 3.06233 2.37701 3.03002C2.46665 2.99771 2.56366 2.99169 2.65661 3.01266C2.74956 3.03364 2.83458 3.08073 2.90166 3.14841C2.92354 3.17028 4.98166 5.21716 7.49791 5.88091V5.50028C7.49695 5.10115 7.57587 4.70587 7.73 4.3377C7.88414 3.96954 8.11038 3.63593 8.39541 3.35653C8.67222 3.08011 9.0016 2.86193 9.3641 2.71487C9.7266 2.56781 10.1149 2.49485 10.506 2.50028C11.0308 2.50546 11.5452 2.64632 11.9994 2.90916C12.4536 3.17201 12.832 3.54789 13.0979 4.00028H14.9998C15.0987 4.00021 15.1955 4.02949 15.2778 4.08442C15.3601 4.13936 15.4242 4.21748 15.4621 4.30889C15.5 4.4003 15.5099 4.50089 15.4906 4.59794C15.4712 4.69498 15.4235 4.78411 15.3535 4.85403Z" fill="#4B5563"/>
</svg>
