<svg width="16" height="16" viewBox="0 0 16 16" fill="none" xmlns="http://www.w3.org/2000/svg">
<path d="M3.57214 5.31278C6.01764 2.91853 9.98264 2.91853 12.4281 5.31278L12.7226 5.60103C12.8449 5.72078 12.8449 5.91478 12.7226 6.03453L11.7156 7.02028C11.6546 7.08028 11.5556 7.08028 11.4944 7.02028L11.0894 6.62378C9.38314 4.95328 6.61689 4.95328 4.91089 6.62378L4.47714 7.04853C4.41614 7.10853 4.31714 7.10853 4.25589 7.04853L3.24914 6.06278C3.12664 5.94278 3.12664 5.74878 3.24914 5.62903L3.57214 5.31278ZM14.5104 7.35153L15.4066 8.22903C15.5289 8.34853 15.5289 8.54278 15.4066 8.66253L11.3661 12.6185C11.2436 12.7383 11.0454 12.7383 10.9231 12.6185L8.05564 9.81078C8.02489 9.78078 7.97539 9.78078 7.94489 9.81078L5.07739 12.6183C4.95489 12.7383 4.75664 12.7383 4.63439 12.6183L0.593641 8.66253C0.471391 8.54278 0.471391 8.34878 0.593641 8.22903L1.48989 7.35153C1.61214 7.23203 1.81039 7.23203 1.93264 7.35153L4.80039 10.1595C4.83089 10.1895 4.88039 10.1895 4.91114 10.1595L7.77864 7.35178C7.90114 7.23178 8.09914 7.23178 8.22139 7.35178L11.0891 10.1593C11.1199 10.1893 11.1694 10.1893 11.1999 10.1593L14.0676 7.35178C14.1901 7.23203 14.3881 7.23178 14.5104 7.35153Z" fill="#3B99FC"/>
</svg>
