<svg width="16" height="16" viewBox="0 0 16 16" fill="none" xmlns="http://www.w3.org/2000/svg">
<mask id="mask0_2692_14639" style="mask-type:luminance" maskUnits="userSpaceOnUse" x="0" y="0" width="16" height="16">
<path d="M16 0H0V16H16V0Z" fill="white"/>
</mask>
<g mask="url(#mask0_2692_14639)">
<path d="M11.4757 16H4.52428C2.02609 16 0 13.9748 0 11.4757V4.52428C0 2.02609 2.02518 0 4.52428 0H11.4757C13.9739 0 16 2.02518 16 4.52428V11.4757C16 13.9748 13.9739 16 11.4757 16Z" fill="#2461ED"/>
<path fill-rule="evenodd" clip-rule="evenodd" d="M9.15148 7.78721C7.58292 6.93959 5.67439 5.84043 4.23801 4.94449C3.8142 4.63918 4.02929 3.99115 4.54151 3.99115H11.6488C12.0452 3.99115 12.3105 4.43318 12.1118 4.76768C11.6342 5.59252 10.937 6.63974 10.3545 7.47006C10.0419 7.91571 9.53245 7.99227 9.15148 7.78721ZM6.8638 8.06246C8.38042 8.8709 10.5059 10.1004 12.0161 11.0301C12.4827 11.3181 12.2968 12.0089 11.7518 12.0089C10.8599 12.0089 9.41064 12.0092 7.96892 12.0094C6.54208 12.0096 5.12258 12.0098 4.25804 12.0098C3.82239 12.0098 3.59911 11.5577 3.78411 11.2424C4.40936 10.177 5.11204 9.10146 5.69626 8.29852C5.95604 7.94034 6.48467 7.86012 6.8638 8.06246Z" fill="white"/>
</g>
</svg>
