<svg width="16" height="16" viewBox="0 0 16 16" fill="none" xmlns="http://www.w3.org/2000/svg">
<path d="M4.75 3.75C4.75 3.94778 4.69135 4.14112 4.58147 4.30557C4.47159 4.47002 4.31541 4.59819 4.13268 4.67388C3.94996 4.74957 3.74889 4.76937 3.55491 4.73079C3.36093 4.6922 3.18275 4.59696 3.04289 4.45711C2.90304 4.31725 2.8078 4.13907 2.76922 3.94509C2.73063 3.75111 2.75043 3.55004 2.82612 3.36732C2.90181 3.18459 3.02998 3.02841 3.19443 2.91853C3.35888 2.80865 3.55222 2.75 3.75 2.75C4.01522 2.75 4.26957 2.85536 4.45711 3.04289C4.64464 3.23043 4.75 3.48478 4.75 3.75ZM8 2.75C7.80222 2.75 7.60888 2.80865 7.44443 2.91853C7.27998 3.02841 7.15181 3.18459 7.07612 3.36732C7.00043 3.55004 6.98063 3.75111 7.01922 3.94509C7.0578 4.13907 7.15304 4.31725 7.29289 4.45711C7.43275 4.59696 7.61093 4.6922 7.80491 4.73079C7.99889 4.76937 8.19996 4.74957 8.38268 4.67388C8.56541 4.59819 8.72159 4.47002 8.83147 4.30557C8.94135 4.14112 9 3.94778 9 3.75C9 3.48478 8.89464 3.23043 8.70711 3.04289C8.51957 2.85536 8.26522 2.75 8 2.75ZM12.25 4.75C12.4478 4.75 12.6411 4.69135 12.8056 4.58147C12.97 4.47159 13.0982 4.31541 13.1739 4.13268C13.2496 3.94996 13.2694 3.74889 13.2308 3.55491C13.1922 3.36093 13.097 3.18275 12.9571 3.04289C12.8173 2.90304 12.6391 2.8078 12.4451 2.76922C12.2511 2.73063 12.05 2.75043 11.8673 2.82612C11.6846 2.90181 11.5284 3.02998 11.4185 3.19443C11.3087 3.35888 11.25 3.55222 11.25 3.75C11.25 4.01522 11.3554 4.26957 11.5429 4.45711C11.7304 4.64464 11.9848 4.75 12.25 4.75ZM3.75 7C3.55222 7 3.35888 7.05865 3.19443 7.16853C3.02998 7.27841 2.90181 7.43459 2.82612 7.61732C2.75043 7.80004 2.73063 8.00111 2.76922 8.19509C2.8078 8.38907 2.90304 8.56725 3.04289 8.70711C3.18275 8.84696 3.36093 8.9422 3.55491 8.98079C3.74889 9.01937 3.94996 8.99957 4.13268 8.92388C4.31541 8.84819 4.47159 8.72002 4.58147 8.55557C4.69135 8.39112 4.75 8.19778 4.75 8C4.75 7.73478 4.64464 7.48043 4.45711 7.29289C4.26957 7.10536 4.01522 7 3.75 7ZM8 7C7.80222 7 7.60888 7.05865 7.44443 7.16853C7.27998 7.27841 7.15181 7.43459 7.07612 7.61732C7.00043 7.80004 6.98063 8.00111 7.01922 8.19509C7.0578 8.38907 7.15304 8.56725 7.29289 8.70711C7.43275 8.84696 7.61093 8.9422 7.80491 8.98079C7.99889 9.01937 8.19996 8.99957 8.38268 8.92388C8.56541 8.84819 8.72159 8.72002 8.83147 8.55557C8.94135 8.39112 9 8.19778 9 8C9 7.73478 8.89464 7.48043 8.70711 7.29289C8.51957 7.10536 8.26522 7 8 7ZM12.25 7C12.0522 7 11.8589 7.05865 11.6944 7.16853C11.53 7.27841 11.4018 7.43459 11.3261 7.61732C11.2504 7.80004 11.2306 8.00111 11.2692 8.19509C11.3078 8.38907 11.403 8.56725 11.5429 8.70711C11.6827 8.84696 11.8609 8.9422 12.0549 8.98079C12.2489 9.01937 12.45 8.99957 12.6327 8.92388C12.8154 8.84819 12.9716 8.72002 13.0815 8.55557C13.1914 8.39112 13.25 8.19778 13.25 8C13.25 7.73478 13.1446 7.48043 12.9571 7.29289C12.7696 7.10536 12.5152 7 12.25 7ZM3.75 11.25C3.55222 11.25 3.35888 11.3087 3.19443 11.4185C3.02998 11.5284 2.90181 11.6846 2.82612 11.8673C2.75043 12.05 2.73063 12.2511 2.76922 12.4451C2.8078 12.6391 2.90304 12.8173 3.04289 12.9571C3.18275 13.097 3.36093 13.1922 3.55491 13.2308C3.74889 13.2694 3.94996 13.2496 4.13268 13.1739C4.31541 13.0982 4.47159 12.97 4.58147 12.8056C4.69135 12.6411 4.75 12.4478 4.75 12.25C4.75 11.9848 4.64464 11.7304 4.45711 11.5429C4.26957 11.3554 4.01522 11.25 3.75 11.25ZM8 11.25C7.80222 11.25 7.60888 11.3087 7.44443 11.4185C7.27998 11.5284 7.15181 11.6846 7.07612 11.8673C7.00043 12.05 6.98063 12.2511 7.01922 12.4451C7.0578 12.6391 7.15304 12.8173 7.29289 12.9571C7.43275 13.097 7.61093 13.1922 7.80491 13.2308C7.99889 13.2694 8.19996 13.2496 8.38268 13.1739C8.56541 13.0982 8.72159 12.97 8.83147 12.8056C8.94135 12.6411 9 12.4478 9 12.25C9 11.9848 8.89464 11.7304 8.70711 11.5429C8.51957 11.3554 8.26522 11.25 8 11.25ZM12.25 11.25C12.0522 11.25 11.8589 11.3087 11.6944 11.4185C11.53 11.5284 11.4018 11.6846 11.3261 11.8673C11.2504 12.05 11.2306 12.2511 11.2692 12.4451C11.3078 12.6391 11.403 12.8173 11.5429 12.9571C11.6827 13.097 11.8609 13.1922 12.0549 13.2308C12.2489 13.2694 12.45 13.2496 12.6327 13.1739C12.8154 13.0982 12.9716 12.97 13.0815 12.8056C13.1914 12.6411 13.25 12.4478 13.25 12.25C13.25 11.9848 13.1446 11.7304 12.9571 11.5429C12.7696 11.3554 12.5152 11.25 12.25 11.25Z" fill="#E5E7EB"/>
</svg>
