<svg width="16" height="16" viewBox="0 0 16 16" fill="none" xmlns="http://www.w3.org/2000/svg">
<path d="M14.4122 3.09564C14.3353 2.91784 14.2078 2.76658 14.0455 2.66068C13.8833 2.55477 13.6935 2.49891 13.4997 2.50002H2.49974C2.3062 2.5004 2.11692 2.55694 1.95488 2.66277C1.79284 2.76861 1.66499 2.91919 1.58684 3.09626C1.5087 3.27332 1.48362 3.46926 1.51464 3.6603C1.54566 3.85134 1.63146 4.02928 1.76161 4.17252L1.76661 4.17814L5.99974 8.69814V13.5C5.9997 13.681 6.04877 13.8586 6.14174 14.0139C6.2347 14.1692 6.36806 14.2963 6.52761 14.3818C6.68715 14.4672 6.86689 14.5078 7.04767 14.4991C7.22845 14.4904 7.40349 14.4329 7.55411 14.3325L9.55411 12.9988C9.69122 12.9074 9.80363 12.7837 9.88138 12.6384C9.95912 12.4932 9.99978 12.331 9.99974 12.1663V8.69814L14.2335 4.17814L14.2385 4.17252C14.37 4.02993 14.4566 3.85176 14.4875 3.66025C14.5184 3.46873 14.4923 3.27236 14.4122 3.09564ZM9.27099 8.01752C9.09729 8.20163 9.00029 8.44502 8.99974 8.69814V12.1663L6.99974 13.5V8.69814C7.00032 8.44411 6.90372 8.19949 6.72974 8.01439L2.49974 3.50002H13.4997L9.27099 8.01752Z" fill="#9CA3AF"/>
</svg>
