<svg width="14" height="14" viewBox="0 0 14 14" fill="none" xmlns="http://www.w3.org/2000/svg">
<g id="Folder">
<path id="Vector" d="M11.8125 3.9375H7.18102L5.6875 2.44399C5.60651 2.36243 5.51013 2.29777 5.40396 2.25374C5.29778 2.20971 5.18392 2.1872 5.06898 2.1875H2.1875C1.95544 2.1875 1.73288 2.27969 1.56878 2.44378C1.40469 2.60788 1.3125 2.83044 1.3125 3.0625V10.9714C1.31293 11.1944 1.40176 11.4082 1.55952 11.5659C1.71728 11.7235 1.93111 11.8122 2.15414 11.8125H11.8612C12.0802 11.8122 12.2903 11.7251 12.4452 11.5702C12.6001 11.4153 12.6872 11.2052 12.6875 10.9862V4.8125C12.6875 4.58044 12.5953 4.35788 12.4312 4.19378C12.2671 4.02969 12.0446 3.9375 11.8125 3.9375ZM2.1875 3.0625H5.06898L5.94398 3.9375H2.1875V3.0625Z" fill="#9CA3AF"/>
</g>
</svg>
