<svg width="16" height="16" viewBox="0 0 16 16" fill="none" xmlns="http://www.w3.org/2000/svg">
<path d="M7 7.25C7 7.39834 6.95601 7.54334 6.8736 7.66668C6.79119 7.79001 6.67406 7.88614 6.53701 7.94291C6.39997 7.99968 6.24917 8.01453 6.10368 7.98559C5.9582 7.95665 5.82456 7.88522 5.71967 7.78033C5.61478 7.67544 5.54335 7.5418 5.51441 7.39632C5.48547 7.25083 5.50032 7.10003 5.55709 6.96299C5.61386 6.82594 5.70999 6.70881 5.83332 6.6264C5.95666 6.54399 6.10166 6.5 6.25 6.5C6.44891 6.5 6.63968 6.57902 6.78033 6.71967C6.92098 6.86032 7 7.05109 7 7.25ZM9.75 6.5C9.60166 6.5 9.45666 6.54399 9.33332 6.6264C9.20999 6.70881 9.11386 6.82594 9.05709 6.96299C9.00033 7.10003 8.98547 7.25083 9.01441 7.39632C9.04335 7.5418 9.11478 7.67544 9.21967 7.78033C9.32456 7.88522 9.4582 7.95665 9.60368 7.98559C9.74917 8.01453 9.89997 7.99968 10.037 7.94291C10.1741 7.88614 10.2912 7.79001 10.3736 7.66668C10.456 7.54334 10.5 7.39834 10.5 7.25C10.5 7.05109 10.421 6.86032 10.2803 6.71967C10.1397 6.57902 9.94891 6.5 9.75 6.5ZM14 7.5V13.5C14 13.5947 13.9732 13.6874 13.9225 13.7674C13.8719 13.8475 13.7996 13.9115 13.714 13.952C13.6284 13.9925 13.5331 14.0079 13.4391 13.9964C13.3451 13.9849 13.2564 13.9469 13.1831 13.8869L11.6669 12.6462L10.15 13.8869C10.0607 13.9599 9.94883 13.9999 9.83344 13.9999C9.71804 13.9999 9.6062 13.9599 9.51688 13.8869L8 12.6462L6.48313 13.8869C6.3938 13.9599 6.28196 13.9999 6.16656 13.9999C6.05117 13.9999 5.93932 13.9599 5.85 13.8869L4.33313 12.6462L2.81687 13.8869C2.74363 13.9469 2.65485 13.9849 2.56087 13.9964C2.46689 14.0079 2.37156 13.9925 2.28599 13.952C2.20041 13.9115 2.1281 13.8475 2.07748 13.7674C2.02685 13.6874 1.99998 13.5947 2 13.5V7.5C2 5.9087 2.63214 4.38258 3.75736 3.25736C4.88258 2.13214 6.4087 1.5 8 1.5C9.5913 1.5 11.1174 2.13214 12.2426 3.25736C13.3679 4.38258 14 5.9087 14 7.5ZM13 7.5C13 6.17392 12.4732 4.90215 11.5355 3.96447C10.5979 3.02678 9.32608 2.5 8 2.5C6.67392 2.5 5.40215 3.02678 4.46447 3.96447C3.52678 4.90215 3 6.17392 3 7.5V12.445L4.01687 11.6131C4.1062 11.5401 4.21804 11.5001 4.33344 11.5001C4.44883 11.5001 4.56068 11.5401 4.65 11.6131L6.16687 12.8538L7.68313 11.6131C7.7725 11.5399 7.88447 11.4999 8 11.4999C8.11553 11.4999 8.2275 11.5399 8.31688 11.6131L9.83313 12.8538L11.35 11.6131C11.4393 11.5401 11.5512 11.5001 11.6666 11.5001C11.782 11.5001 11.8938 11.5401 11.9831 11.6131L13 12.445V7.5Z" fill="#9CA3AF"/>
</svg>
