<svg width="14" height="14" viewBox="0 0 14 14" fill="none" xmlns="http://www.w3.org/2000/svg">
<g id="Wallet">
<path id="Vector" d="M11.8125 3.9375H3.0625C2.94647 3.9375 2.83519 3.89141 2.75314 3.80936C2.67109 3.72731 2.625 3.61603 2.625 3.5C2.625 3.38397 2.67109 3.27269 2.75314 3.19064C2.83519 3.10859 2.94647 3.0625 3.0625 3.0625H10.5C10.616 3.0625 10.7273 3.01641 10.8094 2.93436C10.8914 2.85231 10.9375 2.74103 10.9375 2.625C10.9375 2.50897 10.8914 2.39769 10.8094 2.31564C10.7273 2.23359 10.616 2.1875 10.5 2.1875H3.0625C2.7144 2.1875 2.38056 2.32578 2.13442 2.57192C1.88828 2.81806 1.75 3.1519 1.75 3.5V10.5C1.75 10.8481 1.88828 11.1819 2.13442 11.4281C2.38056 11.6742 2.7144 11.8125 3.0625 11.8125H11.8125C12.0446 11.8125 12.2671 11.7203 12.4312 11.5562C12.5953 11.3921 12.6875 11.1696 12.6875 10.9375V4.8125C12.6875 4.58044 12.5953 4.35788 12.4312 4.19378C12.2671 4.02969 12.0446 3.9375 11.8125 3.9375ZM9.84375 8.3125C9.71396 8.3125 9.58708 8.27401 9.47916 8.2019C9.37124 8.12979 9.28712 8.0273 9.23745 7.90739C9.18778 7.78747 9.17479 7.65552 9.20011 7.52822C9.22543 7.40092 9.28793 7.28399 9.37971 7.19221C9.47149 7.10043 9.58842 7.03793 9.71572 7.01261C9.84302 6.98729 9.97497 7.00028 10.0949 7.04995C10.2148 7.09962 10.3173 7.18374 10.3894 7.29166C10.4615 7.39958 10.5 7.52646 10.5 7.65625C10.5 7.8303 10.4309 7.99722 10.3078 8.12029C10.1847 8.24336 10.0178 8.3125 9.84375 8.3125Z" fill="#9CA3AF"/>
</g>
</svg>
