<svg width="400" height="400" viewBox="0 0 400 400" fill="none" xmlns="http://www.w3.org/2000/svg">
<g clip-path="url(#clip0_3910_2338)">
<mask id="mask0_3910_2338" style="mask-type:luminance" maskUnits="userSpaceOnUse" x="0" y="0" width="400" height="400">
<path d="M400 0H0V400H400V0Z" fill="white"/>
</mask>
<g mask="url(#mask0_3910_2338)">
<path d="M97.5625 160.975C97.5625 127.3 124.862 100 158.539 100H239.026C272.702 100 300.002 127.3 300.002 160.975V241.464C300.002 275.139 272.702 302.439 239.026 302.439H158.539C124.862 302.439 97.5625 275.139 97.5625 241.464V160.975Z" fill="#003CFF"/>
<g filter="url(#filter0_b_3910_2338)">
<path d="M0 36.5854C0 16.3798 16.3798 0 36.5854 0H146.342C166.547 0 182.926 16.3798 182.926 36.5854V146.342C182.926 166.547 166.547 182.926 146.342 182.926H36.5854C16.3798 182.926 0 166.547 0 146.342V36.5854Z" fill="url(#paint0_linear_3910_2338)" fill-opacity="0.3"/>
</g>
<path fill-rule="evenodd" clip-rule="evenodd" d="M146.342 1.21951H36.5854C17.0533 1.21951 1.21951 17.0533 1.21951 36.5854V146.342C1.21951 165.874 17.0533 181.707 36.5854 181.707H146.342C165.874 181.707 181.707 165.874 181.707 146.342V36.5854C181.707 17.0533 165.874 1.21951 146.342 1.21951ZM36.5854 0C16.3798 0 0 16.3798 0 36.5854V146.342C0 166.547 16.3798 182.926 36.5854 182.926H146.342C166.547 182.926 182.926 166.547 182.926 146.342V36.5854C182.926 16.3798 166.547 0 146.342 0H36.5854Z" fill="url(#paint1_linear_3910_2338)"/>
<g filter="url(#filter1_b_3910_2338)">
<path d="M217.07 36.5854C217.07 16.3798 233.45 0 253.655 0H363.411C383.616 0 399.997 16.3798 399.997 36.5854V146.342C399.997 166.547 383.616 182.926 363.411 182.926H253.655C233.45 182.926 217.07 166.547 217.07 146.342V36.5854Z" fill="url(#paint2_linear_3910_2338)" fill-opacity="0.3"/>
</g>
<path fill-rule="evenodd" clip-rule="evenodd" d="M363.411 1.21951H253.655C234.123 1.21951 218.289 17.0533 218.289 36.5854V146.342C218.289 165.874 234.123 181.707 253.655 181.707H363.411C382.944 181.707 398.778 165.874 398.778 146.342V36.5854C398.778 17.0533 382.944 1.21951 363.411 1.21951ZM253.655 0C233.45 0 217.07 16.3798 217.07 36.5854V146.342C217.07 166.547 233.45 182.926 253.655 182.926H363.411C383.616 182.926 399.997 166.547 399.997 146.342V36.5854C399.997 16.3798 383.616 0 363.411 0H253.655Z" fill="url(#paint3_linear_3910_2338)"/>
<g filter="url(#filter2_b_3910_2338)">
<path d="M217.07 253.658C217.07 233.453 233.45 217.073 253.655 217.073H363.411C383.616 217.073 399.997 233.453 399.997 253.658V363.414C399.997 383.619 383.616 400 363.411 400H253.655C233.45 400 217.07 383.619 217.07 363.414V253.658Z" fill="url(#paint4_linear_3910_2338)" fill-opacity="0.3"/>
</g>
<path fill-rule="evenodd" clip-rule="evenodd" d="M363.411 218.293H253.655C234.123 218.293 218.289 234.126 218.289 253.658V363.414C218.289 382.947 234.123 398.781 253.655 398.781H363.411C382.944 398.781 398.778 382.947 398.778 363.414V253.658C398.778 234.126 382.944 218.293 363.411 218.293ZM253.655 217.073C233.45 217.073 217.07 233.453 217.07 253.658V363.414C217.07 383.619 233.45 400 253.655 400H363.411C383.616 400 399.997 383.619 399.997 363.414V253.658C399.997 233.453 383.616 217.073 363.411 217.073H253.655Z" fill="url(#paint5_linear_3910_2338)"/>
<g filter="url(#filter3_b_3910_2338)">
<path d="M0 253.658C0 233.453 16.3798 217.073 36.5854 217.073H146.342C166.547 217.073 182.926 233.453 182.926 253.658V363.414C182.926 383.619 166.547 400 146.342 400H36.5854C16.3798 400 0 383.619 0 363.414V253.658Z" fill="url(#paint6_linear_3910_2338)" fill-opacity="0.3"/>
</g>
<path fill-rule="evenodd" clip-rule="evenodd" d="M146.342 218.293H36.5854C17.0533 218.293 1.21951 234.126 1.21951 253.658V363.414C1.21951 382.947 17.0533 398.781 36.5854 398.781H146.342C165.874 398.781 181.707 382.947 181.707 363.414V253.658C181.707 234.126 165.874 218.293 146.342 218.293ZM36.5854 217.073C16.3798 217.073 0 233.453 0 253.658V363.414C0 383.619 16.3798 400 36.5854 400H146.342C166.547 400 182.926 383.619 182.926 363.414V253.658C182.926 233.453 166.547 217.073 146.342 217.073H36.5854Z" fill="url(#paint7_linear_3910_2338)"/>
<path d="M101.243 86.997H96.2147C95.9917 86.997 95.7787 86.9088 95.6216 86.7518C95.4645 86.5947 95.3764 86.3816 95.3764 86.1594C95.3764 85.9364 95.4645 85.7234 95.6216 85.5663C95.7787 85.4092 95.9917 85.3211 96.2147 85.3211H101.243C101.465 85.3211 101.678 85.4092 101.835 85.5663C101.993 85.7234 102.081 85.9364 102.081 86.1594C102.081 86.3816 101.993 86.5947 101.835 86.7518C101.678 86.9088 101.465 86.997 101.243 86.997ZM86.1572 85.3211H83.6423V82.8062C83.6423 82.5839 83.5542 82.3709 83.3971 82.2138C83.24 82.0567 83.027 81.9686 82.8047 81.9686C82.5818 81.9686 82.3687 82.0567 82.2116 82.2138C82.0545 82.3709 81.9664 82.5839 81.9664 82.8062V85.3211H79.4523C79.2293 85.3211 79.0162 85.4092 78.8591 85.5663C78.7021 85.7234 78.6139 85.9364 78.6139 86.1594C78.6139 86.3816 78.7021 86.5947 78.8591 86.7518C79.0162 86.9088 79.2293 86.997 79.4523 86.997H81.9664V89.5111C81.9664 89.7341 82.0545 89.9472 82.2116 90.1042C82.3687 90.2613 82.5818 90.3495 82.8047 90.3495C83.027 90.3495 83.24 90.2613 83.3971 90.1042C83.5542 89.9472 83.6423 89.7341 83.6423 89.5111V86.997H86.1572C86.3795 86.997 86.5925 86.9088 86.7496 86.7518C86.9067 86.5947 86.9948 86.3816 86.9948 86.1594C86.9948 85.9364 86.9067 85.7234 86.7496 85.5663C86.5925 85.4092 86.3795 85.3211 86.1572 85.3211ZM114.278 105.93C113.717 106.733 112.986 107.402 112.138 107.891C111.29 108.381 110.345 108.678 109.369 108.763C108.395 108.849 107.412 108.72 106.492 108.385C105.573 108.05 104.737 107.517 104.045 106.825L104.009 106.787L95.4369 97.0544H86.9365L78.3641 106.785L78.3266 106.825C77.0683 108.08 75.3631 108.787 73.585 108.789C72.6061 108.788 71.6391 108.573 70.7521 108.159C69.865 107.745 69.0794 107.142 68.4504 106.392C67.8214 105.642 67.3642 104.763 67.111 103.818C66.8578 102.872 66.8147 101.882 66.9848 100.918L70.4149 83.2698C70.8909 80.5579 72.3076 78.1004 74.4162 76.3295C76.5246 74.5586 79.1894 73.5876 81.9434 73.5872H100.405C103.156 73.5909 105.818 74.5598 107.928 76.3249C110.038 78.0905 111.461 80.5395 111.95 83.2468C111.951 83.2537 111.951 83.2606 111.95 83.2675L115.38 100.902C115.538 101.771 115.523 102.664 115.333 103.526C115.144 104.39 114.786 105.207 114.278 105.93ZM100.405 95.3786C101.726 95.3786 103.034 95.118 104.254 94.6131C105.474 94.1073 106.583 93.3663 107.517 92.433C108.451 91.4989 109.192 90.3901 109.697 89.1694C110.202 87.9495 110.462 86.6414 110.462 85.3211C110.462 84 110.202 82.692 109.697 81.4721C109.192 80.2521 108.451 79.1433 107.517 78.2092C106.583 77.2751 105.474 76.5344 104.254 76.029C103.034 75.5236 101.726 75.2634 100.405 75.2635H81.945C79.5833 75.2648 77.2975 76.099 75.4904 77.6192C73.683 79.1395 72.4696 81.2491 72.0638 83.5755L68.6317 101.225C68.4047 102.536 68.7067 103.884 69.4719 104.973C70.2369 106.062 71.4026 106.803 72.7134 107.035C73.5036 107.172 74.3153 107.119 75.0808 106.879C75.8463 106.639 76.5432 106.22 77.1136 105.656L85.9136 95.6636C85.9925 95.574 86.089 95.502 86.1971 95.4529C86.3059 95.4039 86.4231 95.3786 86.5427 95.3786H100.405ZM113.737 101.21L111.432 89.338C110.606 91.5985 109.105 93.551 107.133 94.9311C105.16 96.3111 102.812 97.0521 100.405 97.0544H97.6814L105.258 105.658C106.016 106.409 106.994 106.899 108.05 107.058C109.105 107.216 110.184 107.035 111.13 106.539C112.075 106.044 112.838 105.26 113.309 104.302C113.78 103.344 113.933 102.261 113.748 101.21H113.737Z" fill="url(#paint8_radial_3910_2338)"/>
<path d="M327.908 90.6706L309.468 67.203C309.39 67.1028 309.29 67.0217 309.176 66.966C309.062 66.9103 308.936 66.8813 308.809 66.8813C308.681 66.8813 308.556 66.9103 308.442 66.966C308.327 67.0217 308.227 67.1028 308.149 67.203L289.71 90.6706C289.594 90.8177 289.531 91.0001 289.531 91.1879C289.531 91.3756 289.594 91.558 289.71 91.7051L308.149 115.173C308.227 115.273 308.327 115.354 308.442 115.41C308.556 115.465 308.681 115.494 308.809 115.494C308.936 115.494 309.062 115.465 309.176 115.41C309.29 115.354 309.39 115.273 309.468 115.173L327.908 91.7051C328.023 91.558 328.086 91.3756 328.086 91.1879C328.086 91.0001 328.023 90.8177 327.908 90.6706ZM309.647 70.1447L325.93 90.8676L309.647 98.2683V70.1447ZM307.97 98.2683L291.688 90.8676L307.97 70.1447V98.2683ZM307.97 100.11V112.231L293.153 93.3733L307.97 100.11ZM309.647 100.11L324.465 93.3733L309.647 112.231V100.11Z" fill="url(#paint9_radial_3910_2338)"/>
<path d="M109.629 297.916H76.1046C75.4378 297.916 74.7983 297.652 74.3267 297.18C73.8552 296.709 73.5902 296.069 73.5902 295.402C73.5902 294.736 73.8552 294.096 74.3267 293.624C74.7983 293.152 75.4378 292.888 76.1046 292.888H104.601C104.823 292.888 105.036 292.8 105.193 292.642C105.351 292.485 105.439 292.272 105.439 292.05C105.439 291.828 105.351 291.614 105.193 291.457C105.036 291.3 104.823 291.211 104.601 291.211H76.1046C74.9932 291.211 73.9273 291.653 73.1414 292.439C72.3555 293.225 71.9141 294.291 71.9141 295.402V322.222C71.9141 323.333 72.3555 324.399 73.1414 325.185C73.9273 325.972 74.9932 326.413 76.1046 326.413H109.629C110.297 326.413 110.936 326.148 111.408 325.677C111.879 325.205 112.144 324.565 112.144 323.899V300.431C112.144 299.764 111.879 299.125 111.408 298.653C110.936 298.182 110.297 297.916 109.629 297.916ZM110.467 323.899C110.467 324.121 110.379 324.334 110.222 324.491C110.065 324.648 109.852 324.736 109.629 324.736H76.1046C75.4378 324.736 74.7983 324.472 74.3267 324C73.8552 323.529 73.5902 322.889 73.5902 322.222V298.755C74.3147 299.3 75.1976 299.595 76.1046 299.593H109.629C109.852 299.593 110.065 299.681 110.222 299.838C110.379 299.995 110.467 300.208 110.467 300.431V323.899ZM103.762 311.326C103.762 311.658 103.664 311.982 103.48 312.258C103.296 312.533 103.035 312.749 102.728 312.875C102.421 313.002 102.084 313.035 101.759 312.971C101.435 312.906 101.136 312.746 100.901 312.512C100.667 312.277 100.507 311.978 100.442 311.654C100.378 311.329 100.411 310.991 100.538 310.685C100.664 310.378 100.88 310.117 101.155 309.932C101.431 309.749 101.755 309.65 102.087 309.65C102.531 309.65 102.957 309.827 103.272 310.141C103.586 310.456 103.762 310.882 103.762 311.326Z" fill="url(#paint10_radial_3910_2338)"/>
<path d="M329.766 322.51C329.766 322.732 329.678 322.945 329.52 323.102C329.363 323.26 329.15 323.348 328.928 323.348H288.698C288.475 323.348 288.262 323.26 288.105 323.102C287.947 322.945 287.859 322.732 287.859 322.51V288.985C287.859 288.763 287.947 288.55 288.105 288.392C288.262 288.235 288.475 288.146 288.698 288.146C288.92 288.146 289.133 288.235 289.29 288.392C289.448 288.55 289.536 288.763 289.536 288.985V313.781L301.515 301.802C301.593 301.724 301.685 301.662 301.787 301.62C301.888 301.578 301.997 301.556 302.108 301.556C302.218 301.556 302.327 301.578 302.429 301.62C302.531 301.662 302.623 301.724 302.701 301.802L308.813 307.914L321.875 294.851H315.518C315.295 294.851 315.082 294.763 314.925 294.606C314.767 294.449 314.679 294.236 314.679 294.014C314.679 293.791 314.767 293.578 314.925 293.421C315.082 293.264 315.295 293.176 315.518 293.176H323.899C324.121 293.176 324.334 293.264 324.492 293.421C324.649 293.578 324.737 293.791 324.737 294.014V302.395C324.737 302.617 324.649 302.83 324.492 302.987C324.334 303.145 324.121 303.233 323.899 303.233C323.676 303.233 323.463 303.145 323.306 302.987C323.149 302.83 323.061 302.617 323.061 302.395V296.038L309.406 309.693C309.328 309.771 309.236 309.832 309.134 309.874C309.032 309.917 308.923 309.939 308.813 309.939C308.702 309.939 308.593 309.917 308.492 309.874C308.39 309.832 308.298 309.771 308.22 309.693L302.108 303.581L289.536 316.153V321.671H328.928C329.15 321.671 329.363 321.759 329.52 321.917C329.678 322.074 329.766 322.287 329.766 322.51Z" fill="url(#paint11_radial_3910_2338)"/>
</g>
</g>
<defs>
<filter id="filter0_b_3910_2338" x="-30" y="-30" width="242.926" height="242.927" filterUnits="userSpaceOnUse" color-interpolation-filters="sRGB">
<feFlood flood-opacity="0" result="BackgroundImageFix"/>
<feGaussianBlur in="BackgroundImageFix" stdDeviation="15"/>
<feComposite in2="SourceAlpha" operator="in" result="effect1_backgroundBlur_3910_2338"/>
<feBlend mode="normal" in="SourceGraphic" in2="effect1_backgroundBlur_3910_2338" result="shape"/>
</filter>
<filter id="filter1_b_3910_2338" x="187.07" y="-30" width="242.926" height="242.927" filterUnits="userSpaceOnUse" color-interpolation-filters="sRGB">
<feFlood flood-opacity="0" result="BackgroundImageFix"/>
<feGaussianBlur in="BackgroundImageFix" stdDeviation="15"/>
<feComposite in2="SourceAlpha" operator="in" result="effect1_backgroundBlur_3910_2338"/>
<feBlend mode="normal" in="SourceGraphic" in2="effect1_backgroundBlur_3910_2338" result="shape"/>
</filter>
<filter id="filter2_b_3910_2338" x="187.07" y="187.073" width="242.926" height="242.927" filterUnits="userSpaceOnUse" color-interpolation-filters="sRGB">
<feFlood flood-opacity="0" result="BackgroundImageFix"/>
<feGaussianBlur in="BackgroundImageFix" stdDeviation="15"/>
<feComposite in2="SourceAlpha" operator="in" result="effect1_backgroundBlur_3910_2338"/>
<feBlend mode="normal" in="SourceGraphic" in2="effect1_backgroundBlur_3910_2338" result="shape"/>
</filter>
<filter id="filter3_b_3910_2338" x="-30" y="187.073" width="242.926" height="242.927" filterUnits="userSpaceOnUse" color-interpolation-filters="sRGB">
<feFlood flood-opacity="0" result="BackgroundImageFix"/>
<feGaussianBlur in="BackgroundImageFix" stdDeviation="15"/>
<feComposite in2="SourceAlpha" operator="in" result="effect1_backgroundBlur_3910_2338"/>
<feBlend mode="normal" in="SourceGraphic" in2="effect1_backgroundBlur_3910_2338" result="shape"/>
</filter>
<linearGradient id="paint0_linear_3910_2338" x1="19.5752" y1="16.8772" x2="217.021" y2="119.112" gradientUnits="userSpaceOnUse">
<stop stop-color="#5A81FF" stop-opacity="0.9"/>
<stop offset="0.447036" stop-color="#567DFF" stop-opacity="0.955296"/>
<stop offset="1" stop-color="#4E78FF" stop-opacity="0.9"/>
</linearGradient>
<linearGradient id="paint1_linear_3910_2338" x1="26.3252" y1="-6.53309" x2="197.789" y2="93.5778" gradientUnits="userSpaceOnUse">
<stop offset="0.188941" stop-color="#E7F0FF" stop-opacity="0.523483"/>
<stop offset="0.526042" stop-color="#88A4FF"/>
<stop offset="1" stop-color="#B4D2FF" stop-opacity="0.1"/>
</linearGradient>
<linearGradient id="paint2_linear_3910_2338" x1="236.645" y1="16.8772" x2="434.091" y2="119.112" gradientUnits="userSpaceOnUse">
<stop stop-color="#5A81FF" stop-opacity="0.9"/>
<stop offset="0.447036" stop-color="#567DFF" stop-opacity="0.955296"/>
<stop offset="1" stop-color="#4E78FF" stop-opacity="0.9"/>
</linearGradient>
<linearGradient id="paint3_linear_3910_2338" x1="243.395" y1="-6.53309" x2="414.857" y2="93.5778" gradientUnits="userSpaceOnUse">
<stop offset="0.188941" stop-color="#E7F0FF" stop-opacity="0.523483"/>
<stop offset="0.526042" stop-color="#88A4FF"/>
<stop offset="1" stop-color="#B4D2FF" stop-opacity="0.1"/>
</linearGradient>
<linearGradient id="paint4_linear_3910_2338" x1="236.645" y1="233.95" x2="434.091" y2="336.185" gradientUnits="userSpaceOnUse">
<stop stop-color="#5A81FF" stop-opacity="0.9"/>
<stop offset="0.447036" stop-color="#567DFF" stop-opacity="0.955296"/>
<stop offset="1" stop-color="#4E78FF" stop-opacity="0.9"/>
</linearGradient>
<linearGradient id="paint5_linear_3910_2338" x1="243.395" y1="210.54" x2="414.857" y2="310.651" gradientUnits="userSpaceOnUse">
<stop offset="0.188941" stop-color="#E7F0FF" stop-opacity="0.523483"/>
<stop offset="0.526042" stop-color="#88A4FF"/>
<stop offset="1" stop-color="#B4D2FF" stop-opacity="0.1"/>
</linearGradient>
<linearGradient id="paint6_linear_3910_2338" x1="19.5752" y1="233.95" x2="217.021" y2="336.185" gradientUnits="userSpaceOnUse">
<stop stop-color="#5A81FF" stop-opacity="0.9"/>
<stop offset="0.447036" stop-color="#567DFF" stop-opacity="0.955296"/>
<stop offset="1" stop-color="#4E78FF" stop-opacity="0.9"/>
</linearGradient>
<linearGradient id="paint7_linear_3910_2338" x1="26.3252" y1="210.54" x2="197.789" y2="310.651" gradientUnits="userSpaceOnUse">
<stop offset="0.188941" stop-color="#E7F0FF" stop-opacity="0.523483"/>
<stop offset="0.526042" stop-color="#88A4FF"/>
<stop offset="1" stop-color="#B4D2FF" stop-opacity="0.1"/>
</linearGradient>
<radialGradient id="paint8_radial_3910_2338" cx="0" cy="0" r="1" gradientUnits="userSpaceOnUse" gradientTransform="translate(74.1467 107.637) rotate(-41.7852) scale(32.2319 53.5323)">
<stop stop-color="white"/>
<stop offset="1" stop-color="white" stop-opacity="0.58"/>
</radialGradient>
<radialGradient id="paint9_radial_3910_2338" cx="0" cy="0" r="1" gradientUnits="userSpaceOnUse" gradientTransform="translate(295.293 113.903) rotate(-57.2686) scale(35.2583 53.6076)">
<stop stop-color="white"/>
<stop offset="1" stop-color="white" stop-opacity="0.58"/>
</radialGradient>
<radialGradient id="paint10_radial_3910_2338" cx="0" cy="0" r="1" gradientUnits="userSpaceOnUse" gradientTransform="translate(77.9265 325.26) rotate(-47.1936) scale(29.2739 48.7839)">
<stop stop-color="white"/>
<stop offset="1" stop-color="white" stop-opacity="0.58"/>
</radialGradient>
<radialGradient id="paint11_radial_3910_2338" cx="0" cy="0" r="1" gradientUnits="userSpaceOnUse" gradientTransform="translate(294.122 322.196) rotate(-46.0261) scale(29.8433 49.847)">
<stop stop-color="white"/>
<stop offset="1" stop-color="white" stop-opacity="0.58"/>
</radialGradient>
<clipPath id="clip0_3910_2338">
<rect width="400" height="400" fill="white"/>
</clipPath>
</defs>
</svg>
