<svg width="230" height="140" viewBox="0 0 230 140" fill="none" xmlns="http://www.w3.org/2000/svg">
<rect width="230" height="24" fill="#0749FF"/>
<rect x="0.5" y="0.5" width="229" height="139" stroke="#0749FF"/>
<path d="M8.42383 8.4H9.79183V18H8.42383V8.4ZM9.79183 8.4H13.9078V9.768H9.79183V8.4ZM9.79183 16.632H13.9078V18H9.79183V16.632ZM9.79183 12.516H13.9078V13.884H9.79183V12.516ZM14.8926 8.4H16.2606V18H14.8926V8.4ZM16.2606 8.4H20.3766V9.768H16.2606V8.4ZM16.2606 12.516H20.3766V13.884H16.2606V12.516ZM20.3766 9.768H21.7446V12.516H20.3766V9.768ZM20.3766 13.884H21.7446V18H20.3766V13.884ZM23.0723 8.4H24.4403V18H23.0723V8.4ZM24.4403 8.4H28.5563V9.768H24.4403V8.4ZM24.4403 12.516H28.5563V13.884H24.4403V12.516ZM28.5563 9.768H29.9243V12.516H28.5563V9.768ZM28.5563 13.884H29.9243V18H28.5563V13.884ZM31.252 9.768H32.62V16.632H31.252V9.768ZM32.62 16.632H36.736V18H32.62V16.632ZM32.62 8.4H36.736V9.768H32.62V8.4ZM36.736 9.768H38.104V16.632H36.736V9.768ZM39.3965 8.4H40.7645V18H39.3965V8.4ZM40.7645 8.4H44.8805V9.768H40.7645V8.4ZM40.7645 12.516H44.8805V13.884H40.7645V12.516ZM44.8805 9.768H46.2485V12.516H44.8805V9.768ZM44.8805 13.884H46.2485V18H44.8805V13.884Z" fill="#FBFBFB"/>
<path d="M94.1484 60.6H121.556V66.072H94.1484V60.6ZM94.1484 66.072H99.6204V77.064H94.1484V66.072ZM94.1484 77.064H116.084V82.536H94.1484V77.064ZM116.084 82.536H121.556V93.528H116.084V82.536ZM99.6204 93.528H116.084V99H99.6204V93.528ZM94.1484 88.008H99.6204V93.528H94.1484V88.008ZM125.695 66.072H131.167V93.528H125.695V66.072ZM131.167 60.6H147.631V66.072H131.167V60.6ZM131.167 93.528H147.631V99H131.167V93.528ZM147.631 66.072H153.103V93.528H147.631V66.072ZM158.273 66.072H163.745V93.528H158.273V66.072ZM163.745 60.6H180.209V66.072H163.745V60.6ZM163.745 93.528H180.209V99H163.745V93.528ZM180.209 66.072H185.681V93.528H180.209V66.072Z" fill="#0749FF"/>
<path fill-rule="evenodd" clip-rule="evenodd" d="M71.4981 63.4998H50.498V66.9998H46.998V70.4998H43.498V91.4998H46.998V94.9998H50.498V98.4998H71.4981V94.9998H74.9981V91.4998H78.4981V70.4998H74.9981V66.9998H71.4981V63.4998ZM71.4981 66.9998V70.4998H74.9981V91.4998H71.4981V94.9998H50.498V91.4998H46.998V70.4998H50.498V66.9998H71.4981Z" fill="#0749FF"/>
<path fill-rule="evenodd" clip-rule="evenodd" d="M52.252 72.2502H55.752V75.7502H52.252V72.2502ZM59.252 79.2502H55.752V75.7502H59.252V79.2502ZM62.752 79.2502H59.252V82.7502H55.752V86.2502H52.252V89.7502H55.752V86.2502H59.252V82.7502H62.752V86.2502H66.252V89.7502H69.752V86.2502H66.252V82.7502H62.752V79.2502ZM66.252 75.7502V79.2502H62.752V75.7502H66.252ZM66.252 75.7502V72.2502H69.752V75.7502H66.252Z" fill="#0749FF"/>
<path fill-rule="evenodd" clip-rule="evenodd" d="M210 6H212.4V8.4H210V6ZM214.8 10.8H212.4V8.4H214.8V10.8ZM217.2 10.8H214.8V13.2H212.4V15.6H210V18H212.4V15.6H214.8V13.2H217.2V15.6H219.6V18H222V15.6H219.6V13.2H217.2V10.8ZM219.6 8.4V10.8H217.2V8.4H219.6ZM219.6 8.4V6H222V8.4H219.6Z" fill="#FBFBFB"/>
</svg>
