<svg width="230" height="140" viewBox="0 0 230 140" fill="none" xmlns="http://www.w3.org/2000/svg">
<rect width="230" height="24" fill="#0749FF"/>
<rect x="0.5" y="0.5" width="229" height="139" stroke="#0749FF"/>
<path d="M8.42383 8.4H9.79183V18H8.42383V8.4ZM9.79183 8.4H13.9078V9.768H9.79183V8.4ZM9.79183 16.632H13.9078V18H9.79183V16.632ZM9.79183 12.516H13.9078V13.884H9.79183V12.516ZM14.8926 8.4H16.2606V18H14.8926V8.4ZM16.2606 8.4H20.3766V9.768H16.2606V8.4ZM16.2606 12.516H20.3766V13.884H16.2606V12.516ZM20.3766 9.768H21.7446V12.516H20.3766V9.768ZM20.3766 13.884H21.7446V18H20.3766V13.884ZM23.0723 8.4H24.4403V18H23.0723V8.4ZM24.4403 8.4H28.5563V9.768H24.4403V8.4ZM24.4403 12.516H28.5563V13.884H24.4403V12.516ZM28.5563 9.768H29.9243V12.516H28.5563V9.768ZM28.5563 13.884H29.9243V18H28.5563V13.884ZM31.252 9.768H32.62V16.632H31.252V9.768ZM32.62 16.632H36.736V18H32.62V16.632ZM32.62 8.4H36.736V9.768H32.62V8.4ZM36.736 9.768H38.104V16.632H36.736V9.768ZM39.3965 8.4H40.7645V18H39.3965V8.4ZM40.7645 8.4H44.8805V9.768H40.7645V8.4ZM40.7645 12.516H44.8805V13.884H40.7645V12.516ZM44.8805 9.768H46.2485V12.516H44.8805V9.768ZM44.8805 13.884H46.2485V18H44.8805V13.884Z" fill="black"/>
<path d="M111.147 60.6H116.619V99H111.147V60.6ZM105.675 66.072H111.147V71.592H105.675V66.072ZM100.203 71.592H105.675V77.064H100.203V71.592ZM94.6829 77.064H100.203V82.536H94.6829V77.064ZM89.2109 82.536H111.147V88.008H89.2109V82.536ZM116.619 82.536H122.139V88.008H116.619V82.536ZM126.711 66.072H132.183V93.528H126.711V66.072ZM132.183 60.6H148.647V66.072H132.183V60.6ZM132.183 93.528H148.647V99H132.183V93.528ZM148.647 66.072H154.119V93.528H148.647V66.072ZM181.225 60.6H186.697V99H181.225V60.6ZM175.753 66.072H181.225V71.592H175.753V66.072ZM170.281 71.592H175.753V77.064H170.281V71.592ZM164.761 77.064H170.281V82.536H164.761V77.064ZM159.289 82.536H181.225V88.008H159.289V82.536ZM186.697 82.536H192.217V88.008H186.697V82.536Z" fill="#0749FF"/>
<path fill-rule="evenodd" clip-rule="evenodd" d="M66.4981 63.4997H45.498V66.9997H41.998V70.4997H38.498V91.4997H41.998V94.9997H45.498V98.4997H66.4981V94.9997H69.9981V91.4997H73.4981V70.4997H69.9981V66.9997H66.4981V63.4997ZM66.4981 66.9997V70.4997H69.9981V91.4997H66.4981V94.9997H45.498V91.4997H41.998V70.4997H45.498V66.9997H66.4981Z" fill="#0749FF"/>
<path fill-rule="evenodd" clip-rule="evenodd" d="M47.252 72.2503H50.752V75.7503H47.252V72.2503ZM54.252 79.2503H50.752V75.7503H54.252V79.2503ZM57.752 79.2503H54.252V82.7503H50.752V86.2503H47.252V89.7503H50.752V86.2503H54.252V82.7503H57.752V86.2503H61.252V89.7503H64.752V86.2503H61.252V82.7503H57.752V79.2503ZM61.252 75.7503V79.2503H57.752V75.7503H61.252ZM61.252 75.7503V72.2503H64.752V75.7503H61.252Z" fill="#0749FF"/>
<path fill-rule="evenodd" clip-rule="evenodd" d="M210 6H212.4V8.4H210V6ZM214.8 10.8H212.4V8.4H214.8V10.8ZM217.2 10.8H214.8V13.2H212.4V15.6H210V18H212.4V15.6H214.8V13.2H217.2V15.6H219.6V18H222V15.6H219.6V13.2H217.2V10.8ZM219.6 8.4V10.8H217.2V8.4H219.6ZM219.6 8.4V6H222V8.4H219.6Z" fill="black"/>
</svg>
